<?xml version="1.0" standalone="no"?>
<!DOCTYPE svg PUBLIC "-//W3C//DTD SVG 20010904//EN"
 "http://www.w3.org/TR/2001/REC-SVG-20010904/DTD/svg10.dtd">
<svg version="1.0" xmlns="http://www.w3.org/2000/svg"
 width="2784.000000pt" height="2784.000000pt" viewBox="0 0 2784.000000 2784.000000"
 preserveAspectRatio="xMidYMid meet">
<metadata>
Created by potrace 1.14, written by Peter Selinger 2001-2017
</metadata>
<g transform="translate(0.000000,2784.000000) scale(0.100000,-0.100000)"
fill="#000000" stroke="none">
<path d="M2188 17556 c-1 -2 -77 -6 -168 -10 -91 -3 -181 -8 -200 -11 -19 -2
-57 -6 -85 -9 -50 -5 -109 -13 -155 -22 -14 -3 -41 -7 -60 -10 -19 -3 -42 -8
-50 -11 -8 -3 -24 -7 -35 -8 -11 -1 -31 -6 -45 -10 -14 -5 -31 -10 -38 -11 -7
-1 -46 -13 -85 -25 -40 -12 -75 -23 -79 -23 -3 -1 -10 -4 -14 -8 -4 -5 -13 -8
-19 -8 -7 0 -30 -8 -51 -17 -22 -9 -42 -17 -46 -17 -3 -1 -10 -4 -14 -8 -4 -5
-16 -8 -26 -8 -10 0 -18 -4 -18 -10 0 -5 -6 -10 -13 -10 -7 0 -37 -13 -67 -30
-30 -16 -62 -33 -70 -37 -14 -6 -141 -87 -165 -105 -115 -85 -243 -206 -300
-283 -17 -22 -32 -42 -35 -45 -5 -4 -25 -35 -67 -105 -44 -72 -126 -266 -137
-325 -8 -40 -15 -70 -20 -88 -7 -23 -13 -59 -21 -128 -4 -33 -9 -68 -11 -79
-6 -30 -5 -283 1 -340 4 -43 20 -150 30 -206 12 -65 67 -221 96 -273 6 -10 20
-35 31 -55 44 -78 86 -130 178 -221 53 -52 111 -106 129 -120 18 -14 38 -29
45 -35 7 -5 19 -14 27 -20 9 -5 44 -29 80 -53 70 -46 240 -132 304 -152 22 -7
45 -15 50 -19 6 -3 16 -7 23 -8 19 -5 36 -9 52 -16 31 -11 150 -47 167 -50 10
-1 23 -5 28 -9 6 -3 26 -9 45 -12 19 -3 51 -10 70 -16 19 -6 46 -13 60 -16 14
-3 51 -12 83 -20 32 -8 79 -19 105 -25 26 -5 61 -12 77 -16 17 -3 38 -6 48 -7
9 0 17 -4 17 -9 0 -4 4 -6 8 -3 5 3 24 1 43 -4 19 -5 50 -11 69 -14 19 -3 46
-8 60 -11 14 -3 39 -7 55 -10 17 -3 50 -10 75 -15 25 -5 56 -12 70 -14 14 -2
45 -9 70 -15 25 -5 59 -12 75 -15 17 -3 68 -15 115 -27 47 -11 92 -22 100 -24
114 -27 281 -82 370 -124 70 -32 193 -108 198 -122 2 -5 9 -9 15 -9 18 0 101
-94 130 -148 15 -29 24 -52 21 -52 -4 0 -2 -6 4 -12 5 -7 13 -34 17 -60 35
-236 -44 -422 -230 -544 -50 -33 -103 -62 -125 -69 -3 -1 -18 -7 -35 -14 -16
-7 -37 -14 -45 -16 -8 -2 -15 -4 -15 -5 0 -2 -5 -3 -75 -20 -43 -11 -56 -14
-110 -25 -43 -8 -113 -17 -165 -21 -27 -2 -62 -5 -77 -7 -16 -2 -28 0 -28 5 0
5 -8 5 -17 1 -24 -11 -295 -3 -369 11 -10 2 -39 7 -64 11 -25 4 -54 9 -65 12
-11 3 -27 6 -35 7 -98 16 -304 103 -367 156 -7 5 -16 10 -20 10 -5 0 -16 8
-25 18 -9 9 -44 44 -77 77 -34 33 -61 66 -61 73 0 6 -4 12 -10 12 -5 0 -10 6
-10 14 0 8 -4 16 -8 18 -20 8 -105 224 -100 257 0 3 -1 8 -2 11 -1 3 -4 29 -6
59 -2 30 -6 57 -9 59 -6 6 -1140 9 -1166 4 -14 -3 -16 -16 -13 -80 4 -79 11
-154 19 -207 11 -67 14 -82 24 -130 15 -65 40 -145 52 -167 5 -10 9 -23 9 -29
0 -11 81 -190 90 -199 3 -3 16 -26 30 -52 13 -27 28 -48 32 -48 5 0 8 -5 8
-11 0 -23 135 -184 224 -268 28 -25 60 -56 73 -68 13 -13 28 -23 33 -23 6 0
10 -4 10 -8 0 -4 13 -16 30 -25 16 -10 35 -23 42 -30 24 -22 124 -87 135 -87
6 0 13 -3 15 -7 7 -18 338 -170 338 -156 0 3 6 1 13 -5 10 -8 116 -45 167 -57
8 -2 60 -15 114 -29 85 -22 135 -33 251 -52 11 -1 43 -6 70 -9 28 -3 60 -8 73
-10 80 -13 244 -20 492 -19 317 1 392 5 580 36 36 5 76 12 90 13 14 2 36 6 50
9 14 3 41 9 60 13 41 8 41 8 60 15 16 6 225 66 251 72 9 3 25 9 35 15 11 5 46
20 79 33 33 12 62 25 65 28 3 3 39 22 80 42 89 44 134 70 138 81 2 4 8 7 13 7
9 0 65 36 79 50 3 3 23 18 45 35 267 198 461 504 525 829 13 62 13 67 25 156
18 133 7 401 -21 520 -3 14 -8 38 -11 54 -15 90 -95 274 -160 369 -117 168
-339 357 -533 455 -30 15 -56 30 -58 35 -2 4 -11 7 -21 7 -9 0 -21 4 -26 9
-21 19 -387 136 -554 177 -9 2 -36 8 -61 15 -25 6 -53 13 -62 15 -10 2 -28 6
-40 9 -13 3 -43 10 -68 15 -25 5 -88 18 -140 29 -138 29 -151 31 -190 37 -19
3 -60 11 -90 19 -49 12 -131 27 -145 26 -2 0 -19 5 -37 10 -18 6 -42 12 -53
14 -67 15 -159 36 -215 50 -36 9 -69 18 -75 19 -5 2 -30 8 -55 15 -25 8 -49
14 -55 15 -30 6 -153 51 -172 64 -13 8 -23 12 -23 8 0 -12 -181 93 -238 139
-27 21 -86 86 -107 117 -87 129 -97 360 -21 502 27 50 37 64 87 115 46 46 77
71 89 71 6 0 10 5 10 10 0 6 5 10 11 10 6 0 23 8 37 18 25 17 64 35 137 63 17
7 35 13 40 15 6 1 38 10 72 19 92 24 102 26 232 40 57 7 270 7 331 0 30 -3 71
-7 90 -9 78 -9 186 -34 275 -66 48 -17 198 -96 212 -112 9 -10 20 -18 24 -18
14 0 129 -113 129 -127 0 -7 4 -13 10 -13 12 0 75 -112 95 -169 17 -50 24 -80
31 -136 10 -87 1 -80 105 -82 111 -3 90 -3 214 -3 127 0 120 0 245 3 58 1 111
-1 118 -6 6 -5 12 -6 12 -1 0 5 48 8 107 6 60 -1 113 -2 118 -2 6 0 64 1 130
3 l120 2 -3 59 c-2 32 -6 68 -8 80 -2 12 -6 39 -9 61 -7 48 -13 80 -15 80 -1
0 -3 11 -4 25 -5 45 -17 92 -27 111 -5 11 -8 19 -5 19 2 0 -9 37 -25 83 -35
96 -138 307 -150 307 -5 0 -9 5 -9 12 0 11 -86 130 -139 193 -89 104 -240 231
-370 311 -47 30 -91 58 -98 64 -7 5 -15 10 -19 10 -3 0 -43 17 -87 39 -119 56
-154 71 -166 71 -6 0 -19 4 -29 10 -35 19 -230 78 -312 94 -14 2 -56 11 -95
19 -124 27 -269 43 -475 53 -63 3 -120 7 -127 9 -6 2 -13 2 -15 1z"/>
<path d="M17048 17448 c-3 -11 -2 -5301 1 -5318 1 -6 45 -13 69 -11 26 2 288
3 322 1 8 0 26 0 40 1 30 1 20 1 150 0 98 0 117 0 155 -1 8 -1 54 0 103 0 48
1 92 1 97 0 6 -1 51 -2 100 -1 l90 1 0 746 0 746 65 -6 c132 -11 201 -25 302
-61 74 -27 187 -83 208 -105 3 -3 25 -19 50 -35 53 -35 247 -226 311 -305 24
-30 52 -64 62 -75 31 -35 167 -214 167 -221 0 -4 8 -14 18 -23 9 -9 31 -36 47
-61 17 -25 34 -49 38 -55 4 -5 25 -35 47 -65 22 -30 44 -60 50 -67 5 -7 10
-16 10 -21 0 -5 9 -17 20 -27 11 -10 20 -24 20 -32 0 -7 7 -16 15 -19 8 -4 15
-10 15 -15 0 -5 25 -44 55 -88 30 -44 55 -84 55 -90 0 -6 3 -11 8 -11 4 -1 23
-25 42 -55 37 -57 36 -57 135 -55 11 0 31 0 45 -1 14 0 31 0 38 0 21 2 35 2
117 2 44 0 88 0 98 0 9 0 33 0 52 0 19 0 41 0 48 0 18 0 138 0 162 -1 11 0 31
0 45 1 14 0 30 1 35 1 6 -1 39 -1 75 -1 36 0 74 0 85 -1 11 0 31 0 45 1 31 1
66 1 103 0 69 -2 83 -3 97 -2 21 2 58 2 67 0 4 -1 36 -1 70 0 l62 1 -55 81
c-30 44 -54 83 -54 85 0 6 -42 67 -51 74 -3 3 -13 19 -22 37 -9 17 -22 37 -30
45 -7 7 -24 31 -37 53 -13 22 -27 42 -30 45 -3 3 -20 25 -36 50 -64 95 -99
145 -106 155 -4 6 -26 35 -47 65 -22 30 -44 60 -49 65 -5 6 -17 24 -28 40 -10
17 -21 32 -24 35 -3 3 -40 50 -82 105 -42 55 -85 109 -95 120 -10 12 -42 50
-72 85 -90 107 -272 281 -374 358 -53 40 -101 72 -107 72 -5 0 -10 5 -10 10 0
6 -4 10 -10 10 -5 0 -31 13 -57 28 -57 33 -165 82 -194 87 -12 2 -28 10 -37
17 -8 7 -16 11 -16 9 -1 -2 -21 2 -46 9 -25 7 -53 14 -63 16 -10 2 -27 6 -37
9 -32 10 -151 31 -240 42 -25 3 -52 7 -60 8 -12 2 -15 27 -15 156 -1 85 1 161
3 169 2 10 14 16 30 15 15 -1 35 3 45 7 10 5 17 5 17 -1 0 -6 10 -7 28 -1 15
5 45 11 67 14 22 3 65 10 95 16 30 6 66 13 79 16 13 3 66 18 118 35 138 44
280 122 385 211 15 13 41 34 58 48 76 60 259 252 366 385 27 33 54 66 61 73 7
7 13 17 13 21 0 5 14 22 30 39 17 18 30 34 30 37 0 5 56 81 70 95 3 3 25 34
50 70 24 36 48 66 52 68 4 2 8 10 8 18 0 8 7 17 15 20 8 4 15 12 15 19 0 8 6
20 13 27 7 7 35 47 62 88 28 41 56 81 63 90 7 8 12 19 11 24 0 5 3 12 8 15 5
3 28 35 51 71 23 36 45 70 50 75 4 6 22 34 40 63 27 44 29 52 14 53 -9 0 -305
1 -657 2 -416 1 -644 -2 -651 -8 -6 -6 -31 -39 -55 -75 -50 -71 -172 -246
-204 -290 -11 -15 -35 -50 -54 -76 -53 -75 -280 -372 -299 -392 -10 -9 -34
-37 -54 -62 -71 -89 -205 -217 -288 -276 -30 -21 -57 -41 -60 -44 -17 -19
-194 -93 -251 -104 -8 -2 -25 -6 -39 -9 -40 -10 -90 -17 -165 -23 l-70 -5 0
1423 0 1423 -561 3 c-445 2 -563 0 -566 -10z"/>
<path d="M21339 17453 c-5 -52 1 -3971 6 -4058 4 -66 8 -130 9 -142 1 -13 5
-23 9 -23 5 0 6 -4 3 -9 -3 -5 -1 -33 4 -62 6 -30 13 -66 15 -82 12 -67 58
-218 75 -249 6 -10 10 -25 10 -33 0 -8 5 -15 10 -15 6 0 10 -7 10 -15 0 -28
86 -169 140 -230 76 -85 124 -127 215 -186 63 -42 196 -111 210 -109 3 0 18
-6 35 -15 16 -8 37 -17 47 -18 10 -2 25 -7 33 -10 77 -29 318 -72 470 -85 111
-8 528 -9 650 0 52 4 100 7 105 8 7 0 10 172 10 513 l0 512 -45 -3 c-25 -1
-145 -4 -266 -6 -193 -3 -232 -1 -299 16 -196 48 -288 149 -309 338 -3 25 -8
59 -12 75 -3 17 -7 899 -8 1960 l-1 1930 -562 3 c-310 1 -563 -1 -564 -5z"/>
<path d="M5503 16923 c-2 -175 -7 -246 -29 -378 -6 -39 -32 -141 -47 -185 -14
-42 -82 -156 -118 -198 -61 -71 -191 -142 -285 -157 -16 -3 -51 -9 -79 -15
-53 -11 -143 -21 -240 -25 -33 -1 -63 -3 -67 -4 -5 0 -8 -209 -8 -464 l0 -463
338 0 337 0 2 -785 c1 -431 4 -822 7 -869 6 -106 14 -202 20 -238 3 -15 8 -47
11 -72 3 -25 11 -61 17 -80 6 -19 12 -44 13 -55 1 -11 5 -27 8 -35 3 -8 17
-51 32 -95 14 -44 33 -90 41 -102 8 -12 14 -29 14 -36 0 -8 7 -20 15 -27 8 -6
14 -15 12 -18 -4 -16 63 -102 133 -173 149 -150 345 -250 575 -295 11 -2 43
-8 70 -13 28 -6 75 -13 105 -16 30 -4 66 -8 80 -10 119 -19 605 -19 810 0 25
3 74 7 110 11 36 3 74 7 85 7 20 2 20 10 23 490 1 269 -1 486 -5 484 -9 -6
-61 -11 -283 -32 -85 -8 -334 -8 -385 0 -58 10 -195 56 -195 66 0 5 -5 9 -10
9 -12 0 -33 16 -58 44 -9 10 -23 24 -29 31 -7 8 -13 18 -13 24 0 6 -4 11 -8
11 -7 0 -43 107 -47 140 -1 8 -5 38 -10 65 -7 46 -14 1537 -8 1560 2 7 179 10
506 9 276 0 507 1 513 3 14 5 14 933 0 934 -30 3 -331 -2 -391 -6 -111 -7
-235 -20 -288 -30 -15 -3 -53 -9 -85 -15 -31 -5 -73 -15 -92 -21 -19 -6 -44
-12 -55 -14 -28 -5 -177 -60 -214 -79 -17 -9 -34 -17 -38 -17 -5 -1 -46 -20
-93 -42 -47 -22 -87 -41 -90 -41 -3 -1 -15 -7 -28 -14 -29 -17 -34 -13 -68 55
-16 32 -31 60 -34 63 -3 3 -16 28 -30 55 -13 28 -32 61 -42 74 -10 13 -18 27
-18 32 0 4 28 24 63 45 91 54 244 164 304 218 29 26 80 84 113 129 33 45 67
91 75 102 8 10 15 25 15 32 0 8 6 24 14 36 15 22 74 191 82 231 2 12 6 32 9
46 14 67 15 73 30 185 4 28 8 55 9 60 0 7 -189 11 -549 13 l-550 2 -2 -147z"/>
<path d="M9756 16063 c-1 -1 -44 -5 -96 -8 -113 -7 -121 -8 -137 -18 -8 -5
-13 -3 -13 3 0 6 -3 9 -8 6 -7 -4 -60 -14 -122 -22 -14 -1 -38 -6 -55 -9 -16
-4 -41 -8 -55 -10 -14 -2 -26 -4 -27 -6 -3 -2 -6 -2 -53 -13 -132 -30 -299
-91 -443 -162 -81 -40 -231 -130 -263 -159 -7 -5 -29 -23 -50 -40 -55 -43
-195 -183 -233 -233 -85 -110 -145 -215 -211 -367 -13 -31 -58 -167 -64 -195
-3 -14 -10 -43 -15 -65 -6 -22 -11 -43 -11 -46 0 -3 250 -5 557 -5 l556 1 17
50 c78 228 284 384 580 440 116 22 143 24 290 25 152 0 200 -4 320 -27 19 -4
37 -8 40 -8 49 -9 164 -58 209 -88 134 -91 187 -222 148 -369 -39 -148 -204
-265 -412 -292 -27 -4 -63 -9 -80 -11 -16 -2 -61 -7 -100 -10 -38 -3 -88 -8
-110 -11 -22 -2 -67 -7 -100 -10 -104 -9 -246 -23 -295 -29 -19 -3 -64 -7
-100 -10 -36 -3 -78 -7 -95 -9 -16 -2 -64 -7 -105 -11 -41 -4 -86 -9 -100 -10
-14 -2 -63 -6 -108 -10 -46 -4 -94 -8 -105 -11 -12 -2 -42 -6 -67 -9 -25 -3
-92 -16 -150 -30 -58 -14 -114 -27 -126 -30 -42 -10 -199 -77 -272 -116 -286
-153 -479 -391 -553 -683 -11 -44 -23 -105 -27 -135 -7 -66 -7 -279 1 -336 13
-100 52 -226 95 -311 122 -240 334 -418 631 -531 92 -35 286 -81 366 -87 17
-1 35 -5 40 -8 12 -7 512 -3 540 5 11 2 40 8 65 11 96 13 242 49 354 88 99 34
238 101 326 157 73 46 200 143 200 153 0 4 4 8 9 8 9 0 161 147 161 156 0 3
12 17 26 32 14 15 33 39 42 55 9 15 20 27 24 27 4 0 8 6 8 14 0 8 4 16 8 18
14 5 108 168 152 261 41 88 52 102 64 89 4 -4 11 -7 14 -8 4 0 14 -3 22 -7 15
-6 211 -71 220 -73 36 -8 37 -12 13 -117 -25 -114 -34 -246 -21 -316 5 -25 11
-58 13 -73 19 -107 156 -263 275 -314 14 -6 36 -16 50 -23 48 -21 110 -40 168
-51 31 -5 68 -12 81 -15 113 -22 456 -20 613 4 3 1 7 97 7 214 1 116 1 219 2
227 0 8 -1 121 -2 251 l-1 237 -127 -2 c-69 -1 -144 2 -166 7 -22 5 -47 10
-56 12 -73 15 -128 65 -155 140 -16 46 -18 103 -21 665 -2 611 -5 739 -18 835
-11 83 -12 90 -15 90 -1 0 -3 14 -5 30 -2 25 -15 84 -29 130 -1 6 -8 30 -15
55 -13 47 -28 84 -64 160 -11 25 -21 47 -22 50 -3 14 -44 85 -94 160 -63 94
-203 242 -301 318 -107 82 -296 186 -405 223 -22 7 -46 17 -53 23 -7 5 -15 6
-19 3 -3 -3 -17 0 -32 7 -28 14 -199 57 -241 61 -14 1 -34 5 -45 8 -19 5 -81
15 -150 22 -106 12 -481 26 -489 18z m838 -1971 c33 -20 63 -37 66 -37 3 -1
21 -11 40 -23 19 -12 40 -22 47 -22 19 0 34 -35 21 -48 -7 -7 -9 -12 -5 -12
10 0 -125 -302 -143 -320 -3 -3 -22 -34 -43 -68 -83 -142 -278 -365 -377 -432
-19 -13 -37 -27 -40 -31 -3 -4 -41 -29 -85 -57 -109 -67 -248 -127 -345 -148
-14 -3 -32 -7 -40 -9 -8 -2 -15 -4 -15 -5 0 -1 -9 -3 -20 -4 -11 -2 -45 -7
-75 -11 -65 -10 -324 -10 -360 -1 -14 4 -36 9 -50 11 -153 21 -296 121 -340
238 -20 52 -25 184 -8 227 5 14 11 33 13 43 5 25 66 106 107 142 56 50 192
110 293 129 70 13 134 22 230 32 39 3 73 8 76 10 6 3 127 17 157 17 6 0 12 3
12 6 0 3 15 6 33 7 120 3 370 74 469 134 18 11 40 23 48 27 31 15 126 107 169
163 14 19 29 37 32 40 3 3 11 15 18 28 15 28 29 25 115 -26z"/>
<path d="M14437 16063 c-1 -1 -49 -4 -107 -8 -57 -4 -107 -8 -110 -10 -3 -2
-28 -6 -55 -9 -52 -6 -67 -9 -152 -27 -29 -5 -55 -10 -58 -11 -3 0 -185 -54
-240 -72 -5 -2 -26 -10 -45 -18 -33 -14 -65 -26 -75 -28 -18 -4 -242 -125
-247 -134 -4 -6 -8 -8 -8 -4 0 7 -149 -91 -176 -115 -7 -7 -25 -22 -41 -34
-106 -81 -232 -209 -322 -328 -29 -38 -59 -78 -67 -88 -8 -9 -14 -22 -14 -27
0 -6 -4 -10 -10 -10 -5 0 -10 -5 -10 -11 0 -6 -9 -24 -21 -40 -11 -16 -35 -58
-54 -95 -18 -36 -39 -71 -45 -79 -6 -7 -10 -17 -8 -21 1 -5 -8 -29 -19 -54
-22 -48 -52 -125 -59 -150 -50 -190 -63 -247 -67 -292 -4 -29 -9 -61 -12 -69
-3 -8 -7 -51 -10 -95 -2 -43 -4 -80 -5 -81 -8 -15 4 -334 14 -389 7 -35 19
-109 21 -124 7 -55 62 -251 84 -305 5 -11 24 -57 42 -102 18 -46 36 -83 41
-83 4 0 8 -7 8 -15 0 -9 11 -33 25 -55 14 -22 25 -42 25 -46 0 -11 123 -189
172 -249 103 -124 261 -276 348 -335 13 -8 35 -24 49 -36 82 -65 290 -178 436
-236 57 -23 226 -76 262 -83 14 -2 39 -9 56 -14 18 -6 48 -13 67 -16 19 -2 64
-9 100 -15 36 -6 99 -14 140 -18 93 -8 447 -8 515 1 130 16 152 19 175 22 14
2 25 4 25 5 0 2 20 6 65 14 180 30 448 131 635 240 73 42 222 141 241 161 6 6
33 27 60 48 77 59 249 238 319 332 16 22 33 42 37 43 4 2 8 8 8 12 0 12 62
104 72 108 5 2 6 7 3 12 -3 5 1 14 8 22 39 40 146 296 186 443 42 158 49 195
37 203 -15 10 -1027 11 -1047 1 -14 -7 -22 -27 -33 -79 -7 -34 -100 -198 -141
-248 -22 -27 -121 -128 -150 -152 -111 -93 -309 -188 -430 -206 -16 -3 -37 -7
-45 -10 -74 -26 -440 -23 -512 5 -14 5 -28 8 -30 5 -3 -2 -20 2 -39 10 -19 8
-38 14 -44 15 -44 3 -183 69 -275 131 -54 37 -217 190 -202 190 4 0 2 4 -4 8
-18 11 -98 142 -118 192 -10 25 -22 54 -27 65 -11 29 -29 88 -34 116 -3 13 -7
35 -10 49 -16 83 -19 129 -19 255 1 77 4 156 8 175 4 19 9 49 11 65 5 42 39
153 64 211 12 27 27 61 34 77 6 15 15 27 19 27 5 0 8 5 8 11 0 20 91 140 153
201 104 103 271 202 412 244 145 43 224 53 395 48 186 -6 200 -7 200 -17 0 -5
4 -6 8 -3 5 3 24 1 43 -4 19 -5 37 -10 41 -10 4 0 43 -13 85 -29 181 -67 341
-180 456 -323 20 -25 37 -51 37 -57 0 -6 5 -11 10 -11 6 0 10 -5 10 -10 0 -6
8 -23 18 -37 9 -15 29 -54 44 -87 14 -33 33 -63 42 -66 12 -4 931 -5 1034 -1
18 1 21 5 17 24 -17 74 -26 113 -29 122 -1 6 -6 24 -11 40 -12 48 -53 163 -70
195 -9 17 -13 30 -11 30 8 0 -96 195 -105 198 -5 2 -9 8 -9 13 0 9 -67 112
-96 148 -141 174 -226 264 -339 356 -70 57 -209 155 -220 155 -4 0 -25 13 -48
28 -44 30 -167 90 -252 124 -27 11 -63 26 -80 33 -36 16 -150 53 -185 61 -14
3 -60 14 -102 25 -43 11 -82 17 -88 14 -5 -3 -10 -2 -10 2 0 5 -12 10 -27 11
-16 1 -41 5 -58 7 -101 17 -240 27 -381 29 -58 0 -106 0 -107 -1z"/>
<path d="M23330 15964 c0 -10 56 -153 94 -239 8 -16 26 -59 41 -95 15 -36 35
-83 45 -105 10 -22 32 -76 50 -120 17 -44 36 -88 41 -97 4 -9 31 -72 59 -140
28 -68 59 -141 69 -163 10 -22 29 -65 41 -95 12 -30 33 -79 46 -108 13 -29 24
-55 24 -58 0 -6 5 -18 48 -114 11 -25 30 -70 42 -100 12 -30 30 -73 40 -95 40
-91 82 -191 84 -200 1 -5 10 -25 19 -42 10 -18 16 -33 13 -33 -2 0 9 -27 25
-60 16 -33 29 -63 29 -66 0 -3 11 -30 25 -60 14 -30 25 -57 25 -59 0 -3 10
-27 21 -53 41 -91 49 -110 49 -116 0 -3 11 -29 24 -58 14 -29 43 -98 66 -153
23 -55 47 -113 55 -130 7 -16 32 -75 54 -130 23 -55 51 -118 61 -141 11 -23
20 -44 20 -48 0 -3 9 -25 19 -49 10 -23 44 -103 76 -177 31 -74 63 -148 70
-165 7 -16 22 -52 33 -80 11 -27 32 -76 46 -107 14 -31 26 -64 26 -72 0 -9 5
-16 10 -16 6 0 10 -6 10 -13 0 -11 53 -142 90 -222 59 -128 66 -158 64 -270
-2 -112 -11 -231 -18 -243 -2 -4 -7 -23 -10 -44 -19 -123 -92 -224 -195 -271
-36 -16 -74 -31 -85 -33 -12 -2 -32 -6 -46 -9 -61 -13 -78 -16 -130 -21 -98
-9 -397 -5 -456 7 -5 1 -14 1 -19 0 -11 -1 -15 -944 -5 -955 8 -7 186 -19 302
-20 54 -1 98 -3 98 -6 0 -8 106 -4 119 4 6 4 11 2 11 -4 0 -6 4 -9 9 -5 6 3
65 8 133 11 123 5 149 7 243 18 45 6 178 29 230 40 57 13 199 59 262 85 64 26
210 105 223 120 3 3 28 24 55 46 60 48 119 110 143 148 9 15 20 27 24 27 4 0
8 6 8 14 0 8 4 16 9 18 18 7 124 223 136 278 2 8 4 16 5 18 2 1 3 5 4 10 1 4
5 16 9 27 3 11 9 32 12 48 3 15 8 39 11 55 4 15 7 35 8 45 0 9 3 17 6 17 3 0
5 12 6 28 0 15 4 43 7 62 10 53 19 234 21 425 2 100 7 181 14 198 6 15 21 47
32 71 11 25 20 47 20 50 0 3 12 31 26 63 45 102 51 116 95 223 24 58 46 107
49 110 3 3 6 12 8 20 2 8 14 39 27 68 14 29 25 55 25 58 0 3 8 24 19 47 10 23
49 114 86 202 37 88 75 178 85 200 9 22 23 56 31 75 7 19 28 68 46 108 18 39
33 75 33 78 0 6 9 27 50 119 12 28 36 84 52 125 17 41 33 80 36 85 4 6 7 15 8
20 1 6 21 53 43 105 56 129 60 137 71 163 5 12 21 51 36 87 35 87 63 150 79
180 7 14 13 27 13 30 1 3 6 19 13 35 7 17 13 32 14 35 5 15 27 68 35 85 5 11
91 214 190 450 100 237 205 486 235 555 29 69 69 163 88 210 20 47 52 123 71
169 20 47 34 87 31 89 -3 3 -1034 6 -1186 3 -23 -1 -31 -12 -72 -111 -26 -60
-47 -111 -47 -114 0 -3 -11 -30 -25 -60 -22 -49 -45 -102 -50 -116 -1 -3 -5
-12 -8 -20 -14 -33 -28 -75 -27 -79 1 -2 -2 -7 -7 -10 -4 -3 -14 -24 -22 -46
-7 -22 -19 -53 -27 -70 -11 -25 -50 -121 -89 -220 -11 -28 -36 -93 -79 -205
-20 -52 -40 -104 -45 -115 -20 -45 -74 -197 -107 -300 -20 -60 -38 -117 -41
-125 -3 -8 -7 -19 -9 -25 -1 -5 -19 -69 -39 -142 -20 -72 -38 -140 -40 -150
-31 -141 -56 -268 -61 -313 -3 -30 -8 -57 -9 -60 -3 -5 -16 -111 -21 -175 -1
-22 -3 -40 -4 -40 -2 0 -18 -233 -25 -359 -3 -54 -7 -102 -9 -105 -3 -5 -326
-7 -346 -2 -4 0 -6 11 -7 24 -5 155 -27 467 -34 487 -1 3 -1 8 0 12 1 7 -14
125 -23 188 -3 19 -8 51 -10 70 -5 33 -18 111 -31 175 -14 67 -57 241 -70 280
-8 23 -16 50 -18 61 -2 10 -7 26 -10 34 -11 31 -29 86 -37 115 -5 17 -25 75
-45 130 -20 55 -38 108 -40 119 -2 10 -10 25 -17 34 -7 8 -12 16 -10 16 2 1
-1 14 -7 29 -6 16 -11 30 -11 33 0 12 -231 589 -251 626 -5 10 -9 22 -9 28 0
5 -11 33 -24 62 -21 48 -37 85 -41 98 -1 3 -7 19 -14 35 -7 17 -12 31 -12 33
1 1 -6 16 -14 33 -9 17 -34 74 -56 127 -21 53 -43 100 -48 105 -15 15 -1211
15 -1211 1z"/>
</g>
</svg>
