<svg width="120" viewBox="0 0 536 200" fill="none" xmlns="http://www.w3.org/2000/svg">
<path d="M33.2324 107.689H43.7598C47.1322 107.689 49.9121 107.12 52.0996 105.98C54.2871 104.796 55.9049 103.155 56.9531 101.059C58.0469 98.9167 58.5938 96.4329 58.5938 93.6074C58.5938 91.0553 58.0924 88.7995 57.0898 86.8398C56.1328 84.8346 54.6517 83.2852 52.6465 82.1914C50.6413 81.0521 48.112 80.4824 45.0586 80.4824C42.6432 80.4824 40.4102 80.9609 38.3594 81.918C36.3086 82.875 34.668 84.2194 33.4375 85.9512C32.207 87.6829 31.5918 89.7793 31.5918 92.2402H11.8359C11.8359 86.7715 13.2943 82.0091 16.2109 77.9531C19.1732 73.8971 23.138 70.7298 28.1055 68.4512C33.0729 66.1725 38.5417 65.0332 44.5117 65.0332C51.2565 65.0332 57.1582 66.127 62.2168 68.3145C67.2754 70.4564 71.2174 73.6237 74.043 77.8164C76.8685 82.0091 78.2812 87.2044 78.2812 93.4023C78.2812 96.5469 77.5521 99.6003 76.0938 102.562C74.6354 105.479 72.5391 108.122 69.8047 110.492C67.1159 112.816 63.8346 114.685 59.9609 116.098C56.0872 117.465 51.735 118.148 46.9043 118.148H33.2324V107.689ZM33.2324 122.66V112.475H46.9043C52.3275 112.475 57.0898 113.09 61.1914 114.32C65.293 115.551 68.7337 117.328 71.5137 119.652C74.2936 121.931 76.39 124.643 77.8027 127.787C79.2155 130.886 79.9219 134.327 79.9219 138.109C79.9219 142.758 79.0332 146.905 77.2559 150.551C75.4785 154.151 72.972 157.204 69.7363 159.711C66.5462 162.217 62.8092 164.132 58.5254 165.453C54.2415 166.729 49.5703 167.367 44.5117 167.367C40.319 167.367 36.1947 166.798 32.1387 165.658C28.1283 164.473 24.4824 162.719 21.2012 160.395C17.9655 158.025 15.3678 155.062 13.4082 151.508C11.4941 147.908 10.5371 143.646 10.5371 138.725H30.293C30.293 141.277 30.931 143.555 32.207 145.561C33.4831 147.566 35.2376 149.138 37.4707 150.277C39.7493 151.417 42.2786 151.986 45.0586 151.986C48.2031 151.986 50.8919 151.417 53.125 150.277C55.4036 149.092 57.1354 147.452 58.3203 145.355C59.5508 143.214 60.166 140.73 60.166 137.904C60.166 134.258 59.5052 131.342 58.1836 129.154C56.862 126.921 54.9707 125.281 52.5098 124.232C50.0488 123.184 47.1322 122.66 43.7598 122.66H33.2324ZM135.977 83.4902L108.906 166H87.0996L124.082 66.4688H137.959L135.977 83.4902ZM158.467 166L131.328 83.4902L129.141 66.4688H143.154L180.342 166H158.467ZM157.236 128.949V145.014H104.668V128.949H157.236ZM246.035 132.982H266.475C266.064 139.682 264.219 145.629 260.938 150.824C257.702 156.02 253.167 160.076 247.334 162.992C241.546 165.909 234.574 167.367 226.416 167.367C220.036 167.367 214.316 166.273 209.258 164.086C204.199 161.853 199.87 158.663 196.27 154.516C192.715 150.368 190.003 145.355 188.135 139.477C186.266 133.598 185.332 127.012 185.332 119.721V112.816C185.332 105.525 186.289 98.9395 188.203 93.0605C190.163 87.1361 192.943 82.1003 196.543 77.9531C200.189 73.806 204.541 70.6159 209.6 68.3828C214.658 66.1497 220.309 65.0332 226.553 65.0332C234.847 65.0332 241.842 66.5371 247.539 69.5449C253.281 72.5527 257.725 76.6999 260.869 81.9863C264.059 87.2728 265.973 93.2884 266.611 100.033H246.104C245.876 96.0228 245.078 92.6276 243.711 89.8477C242.344 87.0221 240.27 84.903 237.49 83.4902C234.756 82.0319 231.11 81.3027 226.553 81.3027C223.135 81.3027 220.15 81.9408 217.598 83.2168C215.046 84.4928 212.904 86.4297 211.172 89.0273C209.44 91.625 208.141 94.9062 207.275 98.8711C206.455 102.79 206.045 107.393 206.045 112.68V119.721C206.045 124.87 206.432 129.405 207.207 133.324C207.982 137.198 209.167 140.479 210.762 143.168C212.402 145.811 214.499 147.816 217.051 149.184C219.648 150.505 222.77 151.166 226.416 151.166C230.7 151.166 234.232 150.482 237.012 149.115C239.792 147.748 241.911 145.72 243.369 143.031C244.873 140.342 245.762 136.993 246.035 132.982ZM279.668 156.498C279.668 153.581 280.671 151.143 282.676 149.184C284.727 147.224 287.438 146.244 290.811 146.244C294.183 146.244 296.872 147.224 298.877 149.184C300.928 151.143 301.953 153.581 301.953 156.498C301.953 159.415 300.928 161.853 298.877 163.812C296.872 165.772 294.183 166.752 290.811 166.752C287.438 166.752 284.727 165.772 282.676 163.812C280.671 161.853 279.668 159.415 279.668 156.498ZM356.436 145.219L379.883 66.4688H402.715L368.057 166H353.018L356.436 145.219ZM334.834 66.4688L358.213 145.219L361.768 166H346.592L312.139 66.4688H334.834ZM468.75 132.982H489.189C488.779 139.682 486.934 145.629 483.652 150.824C480.417 156.02 475.882 160.076 470.049 162.992C464.261 165.909 457.288 167.367 449.131 167.367C442.751 167.367 437.031 166.273 431.973 164.086C426.914 161.853 422.585 158.663 418.984 154.516C415.43 150.368 412.718 145.355 410.85 139.477C408.981 133.598 408.047 127.012 408.047 119.721V112.816C408.047 105.525 409.004 98.9395 410.918 93.0605C412.878 87.1361 415.658 82.1003 419.258 77.9531C422.904 73.806 427.256 70.6159 432.314 68.3828C437.373 66.1497 443.024 65.0332 449.268 65.0332C457.562 65.0332 464.557 66.5371 470.254 69.5449C475.996 72.5527 480.439 76.6999 483.584 81.9863C486.774 87.2728 488.688 93.2884 489.326 100.033H468.818C468.59 96.0228 467.793 92.6276 466.426 89.8477C465.059 87.0221 462.985 84.903 460.205 83.4902C457.471 82.0319 453.825 81.3027 449.268 81.3027C445.85 81.3027 442.865 81.9408 440.312 83.2168C437.76 84.4928 435.618 86.4297 433.887 89.0273C432.155 91.625 430.856 94.9062 429.99 98.8711C429.17 102.79 428.76 107.393 428.76 112.68V119.721C428.76 124.87 429.147 129.405 429.922 133.324C430.697 137.198 431.882 140.479 433.477 143.168C435.117 145.811 437.214 147.816 439.766 149.184C442.363 150.505 445.485 151.166 449.131 151.166C453.415 151.166 456.947 150.482 459.727 149.115C462.507 147.748 464.626 145.72 466.084 143.031C467.588 140.342 468.477 136.993 468.75 132.982Z" fill="#FF5722"/>
<path d="M37.2324 103.689H47.7598C51.1322 103.689 53.9121 103.12 56.0996 101.98C58.2871 100.796 59.9049 99.1549 60.9531 97.0586C62.0469 94.9167 62.5938 92.4329 62.5938 89.6074C62.5938 87.0553 62.0924 84.7995 61.0898 82.8398C60.1328 80.8346 58.6517 79.2852 56.6465 78.1914C54.6413 77.0521 52.112 76.4824 49.0586 76.4824C46.6432 76.4824 44.4102 76.9609 42.3594 77.918C40.3086 78.875 38.668 80.2194 37.4375 81.9512C36.207 83.6829 35.5918 85.7793 35.5918 88.2402H15.8359C15.8359 82.7715 17.2943 78.0091 20.2109 73.9531C23.1732 69.8971 27.138 66.7298 32.1055 64.4512C37.0729 62.1725 42.5417 61.0332 48.5117 61.0332C55.2565 61.0332 61.1582 62.127 66.2168 64.3145C71.2754 66.4564 75.2174 69.6237 78.043 73.8164C80.8685 78.0091 82.2812 83.2044 82.2812 89.4023C82.2812 92.5469 81.5521 95.6003 80.0938 98.5625C78.6354 101.479 76.5391 104.122 73.8047 106.492C71.1159 108.816 67.8346 110.685 63.9609 112.098C60.0872 113.465 55.735 114.148 50.9043 114.148H37.2324V103.689ZM37.2324 118.66V108.475H50.9043C56.3275 108.475 61.0898 109.09 65.1914 110.32C69.293 111.551 72.7337 113.328 75.5137 115.652C78.2936 117.931 80.39 120.643 81.8027 123.787C83.2155 126.886 83.9219 130.327 83.9219 134.109C83.9219 138.758 83.0332 142.905 81.2559 146.551C79.4785 150.151 76.972 153.204 73.7363 155.711C70.5462 158.217 66.8092 160.132 62.5254 161.453C58.2415 162.729 53.5703 163.367 48.5117 163.367C44.319 163.367 40.1947 162.798 36.1387 161.658C32.1283 160.473 28.4824 158.719 25.2012 156.395C21.9655 154.025 19.3678 151.062 17.4082 147.508C15.4941 143.908 14.5371 139.646 14.5371 134.725H34.293C34.293 137.277 34.931 139.555 36.207 141.561C37.4831 143.566 39.2376 145.138 41.4707 146.277C43.7493 147.417 46.2786 147.986 49.0586 147.986C52.2031 147.986 54.8919 147.417 57.125 146.277C59.4036 145.092 61.1354 143.452 62.3203 141.355C63.5508 139.214 64.166 136.73 64.166 133.904C64.166 130.258 63.5052 127.342 62.1836 125.154C60.862 122.921 58.9707 121.281 56.5098 120.232C54.0488 119.184 51.1322 118.66 47.7598 118.66H37.2324ZM139.977 79.4902L112.906 162H91.0996L128.082 62.4688H141.959L139.977 79.4902ZM162.467 162L135.328 79.4902L133.141 62.4688H147.154L184.342 162H162.467ZM161.236 124.949V141.014H108.668V124.949H161.236ZM250.035 128.982H270.475C270.064 135.682 268.219 141.629 264.938 146.824C261.702 152.02 257.167 156.076 251.334 158.992C245.546 161.909 238.574 163.367 230.416 163.367C224.036 163.367 218.316 162.273 213.258 160.086C208.199 157.853 203.87 154.663 200.27 150.516C196.715 146.368 194.003 141.355 192.135 135.477C190.266 129.598 189.332 123.012 189.332 115.721V108.816C189.332 101.525 190.289 94.9395 192.203 89.0605C194.163 83.1361 196.943 78.1003 200.543 73.9531C204.189 69.806 208.541 66.6159 213.6 64.3828C218.658 62.1497 224.309 61.0332 230.553 61.0332C238.847 61.0332 245.842 62.5371 251.539 65.5449C257.281 68.5527 261.725 72.6999 264.869 77.9863C268.059 83.2728 269.973 89.2884 270.611 96.0332H250.104C249.876 92.0228 249.078 88.6276 247.711 85.8477C246.344 83.0221 244.27 80.903 241.49 79.4902C238.756 78.0319 235.11 77.3027 230.553 77.3027C227.135 77.3027 224.15 77.9408 221.598 79.2168C219.046 80.4928 216.904 82.4297 215.172 85.0273C213.44 87.625 212.141 90.9062 211.275 94.8711C210.455 98.7904 210.045 103.393 210.045 108.68V115.721C210.045 120.87 210.432 125.405 211.207 129.324C211.982 133.198 213.167 136.479 214.762 139.168C216.402 141.811 218.499 143.816 221.051 145.184C223.648 146.505 226.77 147.166 230.416 147.166C234.7 147.166 238.232 146.482 241.012 145.115C243.792 143.748 245.911 141.72 247.369 139.031C248.873 136.342 249.762 132.993 250.035 128.982ZM283.668 152.498C283.668 149.581 284.671 147.143 286.676 145.184C288.727 143.224 291.438 142.244 294.811 142.244C298.183 142.244 300.872 143.224 302.877 145.184C304.928 147.143 305.953 149.581 305.953 152.498C305.953 155.415 304.928 157.853 302.877 159.812C300.872 161.772 298.183 162.752 294.811 162.752C291.438 162.752 288.727 161.772 286.676 159.812C284.671 157.853 283.668 155.415 283.668 152.498ZM360.436 141.219L383.883 62.4688H406.715L372.057 162H357.018L360.436 141.219ZM338.834 62.4688L362.213 141.219L365.768 162H350.592L316.139 62.4688H338.834ZM472.75 128.982H493.189C492.779 135.682 490.934 141.629 487.652 146.824C484.417 152.02 479.882 156.076 474.049 158.992C468.261 161.909 461.288 163.367 453.131 163.367C446.751 163.367 441.031 162.273 435.973 160.086C430.914 157.853 426.585 154.663 422.984 150.516C419.43 146.368 416.718 141.355 414.85 135.477C412.981 129.598 412.047 123.012 412.047 115.721V108.816C412.047 101.525 413.004 94.9395 414.918 89.0605C416.878 83.1361 419.658 78.1003 423.258 73.9531C426.904 69.806 431.256 66.6159 436.314 64.3828C441.373 62.1497 447.024 61.0332 453.268 61.0332C461.562 61.0332 468.557 62.5371 474.254 65.5449C479.996 68.5527 484.439 72.6999 487.584 77.9863C490.774 83.2728 492.688 89.2884 493.326 96.0332H472.818C472.59 92.0228 471.793 88.6276 470.426 85.8477C469.059 83.0221 466.985 80.903 464.205 79.4902C461.471 78.0319 457.825 77.3027 453.268 77.3027C449.85 77.3027 446.865 77.9408 444.312 79.2168C441.76 80.4928 439.618 82.4297 437.887 85.0273C436.155 87.625 434.856 90.9062 433.99 94.8711C433.17 98.7904 432.76 103.393 432.76 108.68V115.721C432.76 120.87 433.147 125.405 433.922 129.324C434.697 133.198 435.882 136.479 437.477 139.168C439.117 141.811 441.214 143.816 443.766 145.184C446.363 146.505 449.485 147.166 453.131 147.166C457.415 147.166 460.947 146.482 463.727 145.115C466.507 143.748 468.626 141.72 470.084 139.031C471.588 136.342 472.477 132.993 472.75 128.982Z" fill="#F9A825"/>
<path d="M41.2324 99.6895H51.7598C55.1322 99.6895 57.9121 99.1198 60.0996 97.9805C62.2871 96.7956 63.9049 95.1549 64.9531 93.0586C66.0469 90.9167 66.5938 88.4329 66.5938 85.6074C66.5938 83.0553 66.0924 80.7995 65.0898 78.8398C64.1328 76.8346 62.6517 75.2852 60.6465 74.1914C58.6413 73.0521 56.112 72.4824 53.0586 72.4824C50.6432 72.4824 48.4102 72.9609 46.3594 73.918C44.3086 74.875 42.668 76.2194 41.4375 77.9512C40.207 79.6829 39.5918 81.7793 39.5918 84.2402H19.8359C19.8359 78.7715 21.2943 74.0091 24.2109 69.9531C27.1732 65.8971 31.138 62.7298 36.1055 60.4512C41.0729 58.1725 46.5417 57.0332 52.5117 57.0332C59.2565 57.0332 65.1582 58.127 70.2168 60.3145C75.2754 62.4564 79.2174 65.6237 82.043 69.8164C84.8685 74.0091 86.2812 79.2044 86.2812 85.4023C86.2812 88.5469 85.5521 91.6003 84.0938 94.5625C82.6354 97.4792 80.5391 100.122 77.8047 102.492C75.1159 104.816 71.8346 106.685 67.9609 108.098C64.0872 109.465 59.735 110.148 54.9043 110.148H41.2324V99.6895ZM41.2324 114.66V104.475H54.9043C60.3275 104.475 65.0898 105.09 69.1914 106.32C73.293 107.551 76.7337 109.328 79.5137 111.652C82.2936 113.931 84.39 116.643 85.8027 119.787C87.2155 122.886 87.9219 126.327 87.9219 130.109C87.9219 134.758 87.0332 138.905 85.2559 142.551C83.4785 146.151 80.972 149.204 77.7363 151.711C74.5462 154.217 70.8092 156.132 66.5254 157.453C62.2415 158.729 57.5703 159.367 52.5117 159.367C48.319 159.367 44.1947 158.798 40.1387 157.658C36.1283 156.473 32.4824 154.719 29.2012 152.395C25.9655 150.025 23.3678 147.062 21.4082 143.508C19.4941 139.908 18.5371 135.646 18.5371 130.725H38.293C38.293 133.277 38.931 135.555 40.207 137.561C41.4831 139.566 43.2376 141.138 45.4707 142.277C47.7493 143.417 50.2786 143.986 53.0586 143.986C56.2031 143.986 58.8919 143.417 61.125 142.277C63.4036 141.092 65.1354 139.452 66.3203 137.355C67.5508 135.214 68.166 132.73 68.166 129.904C68.166 126.258 67.5052 123.342 66.1836 121.154C64.862 118.921 62.9707 117.281 60.5098 116.232C58.0488 115.184 55.1322 114.66 51.7598 114.66H41.2324ZM143.977 75.4902L116.906 158H95.0996L132.082 58.4688H145.959L143.977 75.4902ZM166.467 158L139.328 75.4902L137.141 58.4688H151.154L188.342 158H166.467ZM165.236 120.949V137.014H112.668V120.949H165.236ZM254.035 124.982H274.475C274.064 131.682 272.219 137.629 268.938 142.824C265.702 148.02 261.167 152.076 255.334 154.992C249.546 157.909 242.574 159.367 234.416 159.367C228.036 159.367 222.316 158.273 217.258 156.086C212.199 153.853 207.87 150.663 204.27 146.516C200.715 142.368 198.003 137.355 196.135 131.477C194.266 125.598 193.332 119.012 193.332 111.721V104.816C193.332 97.5247 194.289 90.9395 196.203 85.0605C198.163 79.1361 200.943 74.1003 204.543 69.9531C208.189 65.806 212.541 62.6159 217.6 60.3828C222.658 58.1497 228.309 57.0332 234.553 57.0332C242.847 57.0332 249.842 58.5371 255.539 61.5449C261.281 64.5527 265.725 68.6999 268.869 73.9863C272.059 79.2728 273.973 85.2884 274.611 92.0332H254.104C253.876 88.0228 253.078 84.6276 251.711 81.8477C250.344 79.0221 248.27 76.903 245.49 75.4902C242.756 74.0319 239.11 73.3027 234.553 73.3027C231.135 73.3027 228.15 73.9408 225.598 75.2168C223.046 76.4928 220.904 78.4297 219.172 81.0273C217.44 83.625 216.141 86.9062 215.275 90.8711C214.455 94.7904 214.045 99.3932 214.045 104.68V111.721C214.045 116.87 214.432 121.405 215.207 125.324C215.982 129.198 217.167 132.479 218.762 135.168C220.402 137.811 222.499 139.816 225.051 141.184C227.648 142.505 230.77 143.166 234.416 143.166C238.7 143.166 242.232 142.482 245.012 141.115C247.792 139.748 249.911 137.72 251.369 135.031C252.873 132.342 253.762 128.993 254.035 124.982ZM287.668 148.498C287.668 145.581 288.671 143.143 290.676 141.184C292.727 139.224 295.438 138.244 298.811 138.244C302.183 138.244 304.872 139.224 306.877 141.184C308.928 143.143 309.953 145.581 309.953 148.498C309.953 151.415 308.928 153.853 306.877 155.812C304.872 157.772 302.183 158.752 298.811 158.752C295.438 158.752 292.727 157.772 290.676 155.812C288.671 153.853 287.668 151.415 287.668 148.498ZM364.436 137.219L387.883 58.4688H410.715L376.057 158H361.018L364.436 137.219ZM342.834 58.4688L366.213 137.219L369.768 158H354.592L320.139 58.4688H342.834ZM476.75 124.982H497.189C496.779 131.682 494.934 137.629 491.652 142.824C488.417 148.02 483.882 152.076 478.049 154.992C472.261 157.909 465.288 159.367 457.131 159.367C450.751 159.367 445.031 158.273 439.973 156.086C434.914 153.853 430.585 150.663 426.984 146.516C423.43 142.368 420.718 137.355 418.85 131.477C416.981 125.598 416.047 119.012 416.047 111.721V104.816C416.047 97.5247 417.004 90.9395 418.918 85.0605C420.878 79.1361 423.658 74.1003 427.258 69.9531C430.904 65.806 435.256 62.6159 440.314 60.3828C445.373 58.1497 451.024 57.0332 457.268 57.0332C465.562 57.0332 472.557 58.5371 478.254 61.5449C483.996 64.5527 488.439 68.6999 491.584 73.9863C494.774 79.2728 496.688 85.2884 497.326 92.0332H476.818C476.59 88.0228 475.793 84.6276 474.426 81.8477C473.059 79.0221 470.985 76.903 468.205 75.4902C465.471 74.0319 461.825 73.3027 457.268 73.3027C453.85 73.3027 450.865 73.9408 448.312 75.2168C445.76 76.4928 443.618 78.4297 441.887 81.0273C440.155 83.625 438.856 86.9062 437.99 90.8711C437.17 94.7904 436.76 99.3932 436.76 104.68V111.721C436.76 116.87 437.147 121.405 437.922 125.324C438.697 129.198 439.882 132.479 441.477 135.168C443.117 137.811 445.214 139.816 447.766 141.184C450.363 142.505 453.485 143.166 457.131 143.166C461.415 143.166 464.947 142.482 467.727 141.115C470.507 139.748 472.626 137.72 474.084 135.031C475.588 132.342 476.477 128.993 476.75 124.982Z" fill="#EEFF41"/>
<path d="M45.2324 95.6895H55.7598C59.1322 95.6895 61.9121 95.1198 64.0996 93.9805C66.2871 92.7956 67.9049 91.1549 68.9531 89.0586C70.0469 86.9167 70.5938 84.4329 70.5938 81.6074C70.5938 79.0553 70.0924 76.7995 69.0898 74.8398C68.1328 72.8346 66.6517 71.2852 64.6465 70.1914C62.6413 69.0521 60.112 68.4824 57.0586 68.4824C54.6432 68.4824 52.4102 68.9609 50.3594 69.918C48.3086 70.875 46.668 72.2194 45.4375 73.9512C44.207 75.6829 43.5918 77.7793 43.5918 80.2402H23.8359C23.8359 74.7715 25.2943 70.0091 28.2109 65.9531C31.1732 61.8971 35.138 58.7298 40.1055 56.4512C45.0729 54.1725 50.5417 53.0332 56.5117 53.0332C63.2565 53.0332 69.1582 54.127 74.2168 56.3145C79.2754 58.4564 83.2174 61.6237 86.043 65.8164C88.8685 70.0091 90.2812 75.2044 90.2812 81.4023C90.2812 84.5469 89.5521 87.6003 88.0938 90.5625C86.6354 93.4792 84.5391 96.1224 81.8047 98.4922C79.1159 100.816 75.8346 102.685 71.9609 104.098C68.0872 105.465 63.735 106.148 58.9043 106.148H45.2324V95.6895ZM45.2324 110.66V100.475H58.9043C64.3275 100.475 69.0898 101.09 73.1914 102.32C77.293 103.551 80.7337 105.328 83.5137 107.652C86.2936 109.931 88.39 112.643 89.8027 115.787C91.2155 118.886 91.9219 122.327 91.9219 126.109C91.9219 130.758 91.0332 134.905 89.2559 138.551C87.4785 142.151 84.972 145.204 81.7363 147.711C78.5462 150.217 74.8092 152.132 70.5254 153.453C66.2415 154.729 61.5703 155.367 56.5117 155.367C52.319 155.367 48.1947 154.798 44.1387 153.658C40.1283 152.473 36.4824 150.719 33.2012 148.395C29.9655 146.025 27.3678 143.062 25.4082 139.508C23.4941 135.908 22.5371 131.646 22.5371 126.725H42.293C42.293 129.277 42.931 131.555 44.207 133.561C45.4831 135.566 47.2376 137.138 49.4707 138.277C51.7493 139.417 54.2786 139.986 57.0586 139.986C60.2031 139.986 62.8919 139.417 65.125 138.277C67.4036 137.092 69.1354 135.452 70.3203 133.355C71.5508 131.214 72.166 128.73 72.166 125.904C72.166 122.258 71.5052 119.342 70.1836 117.154C68.862 114.921 66.9707 113.281 64.5098 112.232C62.0488 111.184 59.1322 110.66 55.7598 110.66H45.2324ZM147.977 71.4902L120.906 154H99.0996L136.082 54.4688H149.959L147.977 71.4902ZM170.467 154L143.328 71.4902L141.141 54.4688H155.154L192.342 154H170.467ZM169.236 116.949V133.014H116.668V116.949H169.236ZM258.035 120.982H278.475C278.064 127.682 276.219 133.629 272.938 138.824C269.702 144.02 265.167 148.076 259.334 150.992C253.546 153.909 246.574 155.367 238.416 155.367C232.036 155.367 226.316 154.273 221.258 152.086C216.199 149.853 211.87 146.663 208.27 142.516C204.715 138.368 202.003 133.355 200.135 127.477C198.266 121.598 197.332 115.012 197.332 107.721V100.816C197.332 93.5247 198.289 86.9395 200.203 81.0605C202.163 75.1361 204.943 70.1003 208.543 65.9531C212.189 61.806 216.541 58.6159 221.6 56.3828C226.658 54.1497 232.309 53.0332 238.553 53.0332C246.847 53.0332 253.842 54.5371 259.539 57.5449C265.281 60.5527 269.725 64.6999 272.869 69.9863C276.059 75.2728 277.973 81.2884 278.611 88.0332H258.104C257.876 84.0228 257.078 80.6276 255.711 77.8477C254.344 75.0221 252.27 72.903 249.49 71.4902C246.756 70.0319 243.11 69.3027 238.553 69.3027C235.135 69.3027 232.15 69.9408 229.598 71.2168C227.046 72.4928 224.904 74.4297 223.172 77.0273C221.44 79.625 220.141 82.9062 219.275 86.8711C218.455 90.7904 218.045 95.3932 218.045 100.68V107.721C218.045 112.87 218.432 117.405 219.207 121.324C219.982 125.198 221.167 128.479 222.762 131.168C224.402 133.811 226.499 135.816 229.051 137.184C231.648 138.505 234.77 139.166 238.416 139.166C242.7 139.166 246.232 138.482 249.012 137.115C251.792 135.748 253.911 133.72 255.369 131.031C256.873 128.342 257.762 124.993 258.035 120.982ZM291.668 144.498C291.668 141.581 292.671 139.143 294.676 137.184C296.727 135.224 299.438 134.244 302.811 134.244C306.183 134.244 308.872 135.224 310.877 137.184C312.928 139.143 313.953 141.581 313.953 144.498C313.953 147.415 312.928 149.853 310.877 151.812C308.872 153.772 306.183 154.752 302.811 154.752C299.438 154.752 296.727 153.772 294.676 151.812C292.671 149.853 291.668 147.415 291.668 144.498ZM368.436 133.219L391.883 54.4688H414.715L380.057 154H365.018L368.436 133.219ZM346.834 54.4688L370.213 133.219L373.768 154H358.592L324.139 54.4688H346.834ZM480.75 120.982H501.189C500.779 127.682 498.934 133.629 495.652 138.824C492.417 144.02 487.882 148.076 482.049 150.992C476.261 153.909 469.288 155.367 461.131 155.367C454.751 155.367 449.031 154.273 443.973 152.086C438.914 149.853 434.585 146.663 430.984 142.516C427.43 138.368 424.718 133.355 422.85 127.477C420.981 121.598 420.047 115.012 420.047 107.721V100.816C420.047 93.5247 421.004 86.9395 422.918 81.0605C424.878 75.1361 427.658 70.1003 431.258 65.9531C434.904 61.806 439.256 58.6159 444.314 56.3828C449.373 54.1497 455.024 53.0332 461.268 53.0332C469.562 53.0332 476.557 54.5371 482.254 57.5449C487.996 60.5527 492.439 64.6999 495.584 69.9863C498.774 75.2728 500.688 81.2884 501.326 88.0332H480.818C480.59 84.0228 479.793 80.6276 478.426 77.8477C477.059 75.0221 474.985 72.903 472.205 71.4902C469.471 70.0319 465.825 69.3027 461.268 69.3027C457.85 69.3027 454.865 69.9408 452.312 71.2168C449.76 72.4928 447.618 74.4297 445.887 77.0273C444.155 79.625 442.856 82.9062 441.99 86.8711C441.17 90.7904 440.76 95.3932 440.76 100.68V107.721C440.76 112.87 441.147 117.405 441.922 121.324C442.697 125.198 443.882 128.479 445.477 131.168C447.117 133.811 449.214 135.816 451.766 137.184C454.363 138.505 457.485 139.166 461.131 139.166C465.415 139.166 468.947 138.482 471.727 137.115C474.507 135.748 476.626 133.72 478.084 131.031C479.588 128.342 480.477 124.993 480.75 120.982Z" fill="#43A047"/>
<path d="M49.2324 91.6895H59.7598C63.1322 91.6895 65.9121 91.1198 68.0996 89.9805C70.2871 88.7956 71.9049 87.1549 72.9531 85.0586C74.0469 82.9167 74.5938 80.4329 74.5938 77.6074C74.5938 75.0553 74.0924 72.7995 73.0898 70.8398C72.1328 68.8346 70.6517 67.2852 68.6465 66.1914C66.6413 65.0521 64.112 64.4824 61.0586 64.4824C58.6432 64.4824 56.4102 64.9609 54.3594 65.918C52.3086 66.875 50.668 68.2194 49.4375 69.9512C48.207 71.6829 47.5918 73.7793 47.5918 76.2402H27.8359C27.8359 70.7715 29.2943 66.0091 32.2109 61.9531C35.1732 57.8971 39.138 54.7298 44.1055 52.4512C49.0729 50.1725 54.5417 49.0332 60.5117 49.0332C67.2565 49.0332 73.1582 50.127 78.2168 52.3145C83.2754 54.4564 87.2174 57.6237 90.043 61.8164C92.8685 66.0091 94.2812 71.2044 94.2812 77.4023C94.2812 80.5469 93.5521 83.6003 92.0938 86.5625C90.6354 89.4792 88.5391 92.1224 85.8047 94.4922C83.1159 96.8164 79.8346 98.6849 75.9609 100.098C72.0872 101.465 67.735 102.148 62.9043 102.148H49.2324V91.6895ZM49.2324 106.66V96.4746H62.9043C68.3275 96.4746 73.0898 97.0898 77.1914 98.3203C81.293 99.5508 84.7337 101.328 87.5137 103.652C90.2936 105.931 92.39 108.643 93.8027 111.787C95.2155 114.886 95.9219 118.327 95.9219 122.109C95.9219 126.758 95.0332 130.905 93.2559 134.551C91.4785 138.151 88.972 141.204 85.7363 143.711C82.5462 146.217 78.8092 148.132 74.5254 149.453C70.2415 150.729 65.5703 151.367 60.5117 151.367C56.319 151.367 52.1947 150.798 48.1387 149.658C44.1283 148.473 40.4824 146.719 37.2012 144.395C33.9655 142.025 31.3678 139.062 29.4082 135.508C27.4941 131.908 26.5371 127.646 26.5371 122.725H46.293C46.293 125.277 46.931 127.555 48.207 129.561C49.4831 131.566 51.2376 133.138 53.4707 134.277C55.7493 135.417 58.2786 135.986 61.0586 135.986C64.2031 135.986 66.8919 135.417 69.125 134.277C71.4036 133.092 73.1354 131.452 74.3203 129.355C75.5508 127.214 76.166 124.73 76.166 121.904C76.166 118.258 75.5052 115.342 74.1836 113.154C72.862 110.921 70.9707 109.281 68.5098 108.232C66.0488 107.184 63.1322 106.66 59.7598 106.66H49.2324ZM151.977 67.4902L124.906 150H103.1L140.082 50.4688H153.959L151.977 67.4902ZM174.467 150L147.328 67.4902L145.141 50.4688H159.154L196.342 150H174.467ZM173.236 112.949V129.014H120.668V112.949H173.236ZM262.035 116.982H282.475C282.064 123.682 280.219 129.629 276.938 134.824C273.702 140.02 269.167 144.076 263.334 146.992C257.546 149.909 250.574 151.367 242.416 151.367C236.036 151.367 230.316 150.273 225.258 148.086C220.199 145.853 215.87 142.663 212.27 138.516C208.715 134.368 206.003 129.355 204.135 123.477C202.266 117.598 201.332 111.012 201.332 103.721V96.8164C201.332 89.5247 202.289 82.9395 204.203 77.0605C206.163 71.1361 208.943 66.1003 212.543 61.9531C216.189 57.806 220.541 54.6159 225.6 52.3828C230.658 50.1497 236.309 49.0332 242.553 49.0332C250.847 49.0332 257.842 50.5371 263.539 53.5449C269.281 56.5527 273.725 60.6999 276.869 65.9863C280.059 71.2728 281.973 77.2884 282.611 84.0332H262.104C261.876 80.0228 261.078 76.6276 259.711 73.8477C258.344 71.0221 256.27 68.903 253.49 67.4902C250.756 66.0319 247.11 65.3027 242.553 65.3027C239.135 65.3027 236.15 65.9408 233.598 67.2168C231.046 68.4928 228.904 70.4297 227.172 73.0273C225.44 75.625 224.141 78.9062 223.275 82.8711C222.455 86.7904 222.045 91.3932 222.045 96.6797V103.721C222.045 108.87 222.432 113.405 223.207 117.324C223.982 121.198 225.167 124.479 226.762 127.168C228.402 129.811 230.499 131.816 233.051 133.184C235.648 134.505 238.77 135.166 242.416 135.166C246.7 135.166 250.232 134.482 253.012 133.115C255.792 131.748 257.911 129.72 259.369 127.031C260.873 124.342 261.762 120.993 262.035 116.982ZM295.668 140.498C295.668 137.581 296.671 135.143 298.676 133.184C300.727 131.224 303.438 130.244 306.811 130.244C310.183 130.244 312.872 131.224 314.877 133.184C316.928 135.143 317.953 137.581 317.953 140.498C317.953 143.415 316.928 145.853 314.877 147.812C312.872 149.772 310.183 150.752 306.811 150.752C303.438 150.752 300.727 149.772 298.676 147.812C296.671 145.853 295.668 143.415 295.668 140.498ZM372.436 129.219L395.883 50.4688H418.715L384.057 150H369.018L372.436 129.219ZM350.834 50.4688L374.213 129.219L377.768 150H362.592L328.139 50.4688H350.834ZM484.75 116.982H505.189C504.779 123.682 502.934 129.629 499.652 134.824C496.417 140.02 491.882 144.076 486.049 146.992C480.261 149.909 473.288 151.367 465.131 151.367C458.751 151.367 453.031 150.273 447.973 148.086C442.914 145.853 438.585 142.663 434.984 138.516C431.43 134.368 428.718 129.355 426.85 123.477C424.981 117.598 424.047 111.012 424.047 103.721V96.8164C424.047 89.5247 425.004 82.9395 426.918 77.0605C428.878 71.1361 431.658 66.1003 435.258 61.9531C438.904 57.806 443.256 54.6159 448.314 52.3828C453.373 50.1497 459.024 49.0332 465.268 49.0332C473.562 49.0332 480.557 50.5371 486.254 53.5449C491.996 56.5527 496.439 60.6999 499.584 65.9863C502.774 71.2728 504.688 77.2884 505.326 84.0332H484.818C484.59 80.0228 483.793 76.6276 482.426 73.8477C481.059 71.0221 478.985 68.903 476.205 67.4902C473.471 66.0319 469.825 65.3027 465.268 65.3027C461.85 65.3027 458.865 65.9408 456.312 67.2168C453.76 68.4928 451.618 70.4297 449.887 73.0273C448.155 75.625 446.856 78.9062 445.99 82.8711C445.17 86.7904 444.76 91.3932 444.76 96.6797V103.721C444.76 108.87 445.147 113.405 445.922 117.324C446.697 121.198 447.882 124.479 449.477 127.168C451.117 129.811 453.214 131.816 455.766 133.184C458.363 134.505 461.485 135.166 465.131 135.166C469.415 135.166 472.947 134.482 475.727 133.115C478.507 131.748 480.626 129.72 482.084 127.031C483.588 124.342 484.477 120.993 484.75 116.982Z" fill="#26C6DA"/>
<path d="M53.2324 87.6895H63.7598C67.1322 87.6895 69.9121 87.1198 72.0996 85.9805C74.2871 84.7956 75.9049 83.1549 76.9531 81.0586C78.0469 78.9167 78.5938 76.4329 78.5938 73.6074C78.5938 71.0553 78.0924 68.7995 77.0898 66.8398C76.1328 64.8346 74.6517 63.2852 72.6465 62.1914C70.6413 61.0521 68.112 60.4824 65.0586 60.4824C62.6432 60.4824 60.4102 60.9609 58.3594 61.918C56.3086 62.875 54.668 64.2194 53.4375 65.9512C52.207 67.6829 51.5918 69.7793 51.5918 72.2402H31.8359C31.8359 66.7715 33.2943 62.0091 36.2109 57.9531C39.1732 53.8971 43.138 50.7298 48.1055 48.4512C53.0729 46.1725 58.5417 45.0332 64.5117 45.0332C71.2565 45.0332 77.1582 46.127 82.2168 48.3145C87.2754 50.4564 91.2174 53.6237 94.043 57.8164C96.8685 62.0091 98.2812 67.2044 98.2812 73.4023C98.2812 76.5469 97.5521 79.6003 96.0938 82.5625C94.6354 85.4792 92.5391 88.1224 89.8047 90.4922C87.1159 92.8164 83.8346 94.6849 79.9609 96.0977C76.0872 97.4648 71.735 98.1484 66.9043 98.1484H53.2324V87.6895ZM53.2324 102.66V92.4746H66.9043C72.3275 92.4746 77.0898 93.0898 81.1914 94.3203C85.293 95.5508 88.7337 97.3281 91.5137 99.6523C94.2936 101.931 96.39 104.643 97.8027 107.787C99.2155 110.886 99.9219 114.327 99.9219 118.109C99.9219 122.758 99.0332 126.905 97.2559 130.551C95.4785 134.151 92.972 137.204 89.7363 139.711C86.5462 142.217 82.8092 144.132 78.5254 145.453C74.2415 146.729 69.5703 147.367 64.5117 147.367C60.319 147.367 56.1947 146.798 52.1387 145.658C48.1283 144.473 44.4824 142.719 41.2012 140.395C37.9655 138.025 35.3678 135.062 33.4082 131.508C31.4941 127.908 30.5371 123.646 30.5371 118.725H50.293C50.293 121.277 50.931 123.555 52.207 125.561C53.4831 127.566 55.2376 129.138 57.4707 130.277C59.7493 131.417 62.2786 131.986 65.0586 131.986C68.2031 131.986 70.8919 131.417 73.125 130.277C75.4036 129.092 77.1354 127.452 78.3203 125.355C79.5508 123.214 80.166 120.73 80.166 117.904C80.166 114.258 79.5052 111.342 78.1836 109.154C76.862 106.921 74.9707 105.281 72.5098 104.232C70.0488 103.184 67.1322 102.66 63.7598 102.66H53.2324ZM155.977 63.4902L128.906 146H107.1L144.082 46.4688H157.959L155.977 63.4902ZM178.467 146L151.328 63.4902L149.141 46.4688H163.154L200.342 146H178.467ZM177.236 108.949V125.014H124.668V108.949H177.236ZM266.035 112.982H286.475C286.064 119.682 284.219 125.629 280.938 130.824C277.702 136.02 273.167 140.076 267.334 142.992C261.546 145.909 254.574 147.367 246.416 147.367C240.036 147.367 234.316 146.273 229.258 144.086C224.199 141.853 219.87 138.663 216.27 134.516C212.715 130.368 210.003 125.355 208.135 119.477C206.266 113.598 205.332 107.012 205.332 99.7207V92.8164C205.332 85.5247 206.289 78.9395 208.203 73.0605C210.163 67.1361 212.943 62.1003 216.543 57.9531C220.189 53.806 224.541 50.6159 229.6 48.3828C234.658 46.1497 240.309 45.0332 246.553 45.0332C254.847 45.0332 261.842 46.5371 267.539 49.5449C273.281 52.5527 277.725 56.6999 280.869 61.9863C284.059 67.2728 285.973 73.2884 286.611 80.0332H266.104C265.876 76.0228 265.078 72.6276 263.711 69.8477C262.344 67.0221 260.27 64.903 257.49 63.4902C254.756 62.0319 251.11 61.3027 246.553 61.3027C243.135 61.3027 240.15 61.9408 237.598 63.2168C235.046 64.4928 232.904 66.4297 231.172 69.0273C229.44 71.625 228.141 74.9062 227.275 78.8711C226.455 82.7904 226.045 87.3932 226.045 92.6797V99.7207C226.045 104.87 226.432 109.405 227.207 113.324C227.982 117.198 229.167 120.479 230.762 123.168C232.402 125.811 234.499 127.816 237.051 129.184C239.648 130.505 242.77 131.166 246.416 131.166C250.7 131.166 254.232 130.482 257.012 129.115C259.792 127.748 261.911 125.72 263.369 123.031C264.873 120.342 265.762 116.993 266.035 112.982ZM299.668 136.498C299.668 133.581 300.671 131.143 302.676 129.184C304.727 127.224 307.438 126.244 310.811 126.244C314.183 126.244 316.872 127.224 318.877 129.184C320.928 131.143 321.953 133.581 321.953 136.498C321.953 139.415 320.928 141.853 318.877 143.812C316.872 145.772 314.183 146.752 310.811 146.752C307.438 146.752 304.727 145.772 302.676 143.812C300.671 141.853 299.668 139.415 299.668 136.498ZM376.436 125.219L399.883 46.4688H422.715L388.057 146H373.018L376.436 125.219ZM354.834 46.4688L378.213 125.219L381.768 146H366.592L332.139 46.4688H354.834ZM488.75 112.982H509.189C508.779 119.682 506.934 125.629 503.652 130.824C500.417 136.02 495.882 140.076 490.049 142.992C484.261 145.909 477.288 147.367 469.131 147.367C462.751 147.367 457.031 146.273 451.973 144.086C446.914 141.853 442.585 138.663 438.984 134.516C435.43 130.368 432.718 125.355 430.85 119.477C428.981 113.598 428.047 107.012 428.047 99.7207V92.8164C428.047 85.5247 429.004 78.9395 430.918 73.0605C432.878 67.1361 435.658 62.1003 439.258 57.9531C442.904 53.806 447.256 50.6159 452.314 48.3828C457.373 46.1497 463.024 45.0332 469.268 45.0332C477.562 45.0332 484.557 46.5371 490.254 49.5449C495.996 52.5527 500.439 56.6999 503.584 61.9863C506.774 67.2728 508.688 73.2884 509.326 80.0332H488.818C488.59 76.0228 487.793 72.6276 486.426 69.8477C485.059 67.0221 482.985 64.903 480.205 63.4902C477.471 62.0319 473.825 61.3027 469.268 61.3027C465.85 61.3027 462.865 61.9408 460.312 63.2168C457.76 64.4928 455.618 66.4297 453.887 69.0273C452.155 71.625 450.856 74.9062 449.99 78.8711C449.17 82.7904 448.76 87.3932 448.76 92.6797V99.7207C448.76 104.87 449.147 109.405 449.922 113.324C450.697 117.198 451.882 120.479 453.477 123.168C455.117 125.811 457.214 127.816 459.766 129.184C462.363 130.505 465.485 131.166 469.131 131.166C473.415 131.166 476.947 130.482 479.727 129.115C482.507 127.748 484.626 125.72 486.084 123.031C487.588 120.342 488.477 116.993 488.75 112.982Z" fill="#2196F3"/>
<path d="M57.2324 83.6895H67.7598C71.1322 83.6895 73.9121 83.1198 76.0996 81.9805C78.2871 80.7956 79.9049 79.1549 80.9531 77.0586C82.0469 74.9167 82.5938 72.4329 82.5938 69.6074C82.5938 67.0553 82.0924 64.7995 81.0898 62.8398C80.1328 60.8346 78.6517 59.2852 76.6465 58.1914C74.6413 57.0521 72.112 56.4824 69.0586 56.4824C66.6432 56.4824 64.4102 56.9609 62.3594 57.918C60.3086 58.875 58.668 60.2194 57.4375 61.9512C56.207 63.6829 55.5918 65.7793 55.5918 68.2402H35.8359C35.8359 62.7715 37.2943 58.0091 40.2109 53.9531C43.1732 49.8971 47.138 46.7298 52.1055 44.4512C57.0729 42.1725 62.5417 41.0332 68.5117 41.0332C75.2565 41.0332 81.1582 42.127 86.2168 44.3145C91.2754 46.4564 95.2174 49.6237 98.043 53.8164C100.868 58.0091 102.281 63.2044 102.281 69.4023C102.281 72.5469 101.552 75.6003 100.094 78.5625C98.6354 81.4792 96.5391 84.1224 93.8047 86.4922C91.1159 88.8164 87.8346 90.6849 83.9609 92.0977C80.0872 93.4648 75.735 94.1484 70.9043 94.1484H57.2324V83.6895ZM57.2324 98.6602V88.4746H70.9043C76.3275 88.4746 81.0898 89.0898 85.1914 90.3203C89.293 91.5508 92.7337 93.3281 95.5137 95.6523C98.2936 97.931 100.39 100.643 101.803 103.787C103.215 106.886 103.922 110.327 103.922 114.109C103.922 118.758 103.033 122.905 101.256 126.551C99.4785 130.151 96.972 133.204 93.7363 135.711C90.5462 138.217 86.8092 140.132 82.5254 141.453C78.2415 142.729 73.5703 143.367 68.5117 143.367C64.319 143.367 60.1947 142.798 56.1387 141.658C52.1283 140.473 48.4824 138.719 45.2012 136.395C41.9655 134.025 39.3678 131.062 37.4082 127.508C35.4941 123.908 34.5371 119.646 34.5371 114.725H54.293C54.293 117.277 54.931 119.555 56.207 121.561C57.4831 123.566 59.2376 125.138 61.4707 126.277C63.7493 127.417 66.2786 127.986 69.0586 127.986C72.2031 127.986 74.8919 127.417 77.125 126.277C79.4036 125.092 81.1354 123.452 82.3203 121.355C83.5508 119.214 84.166 116.73 84.166 113.904C84.166 110.258 83.5052 107.342 82.1836 105.154C80.862 102.921 78.9707 101.281 76.5098 100.232C74.0488 99.1842 71.1322 98.6602 67.7598 98.6602H57.2324ZM159.977 59.4902L132.906 142H111.1L148.082 42.4688H161.959L159.977 59.4902ZM182.467 142L155.328 59.4902L153.141 42.4688H167.154L204.342 142H182.467ZM181.236 104.949V121.014H128.668V104.949H181.236ZM270.035 108.982H290.475C290.064 115.682 288.219 121.629 284.938 126.824C281.702 132.02 277.167 136.076 271.334 138.992C265.546 141.909 258.574 143.367 250.416 143.367C244.036 143.367 238.316 142.273 233.258 140.086C228.199 137.853 223.87 134.663 220.27 130.516C216.715 126.368 214.003 121.355 212.135 115.477C210.266 109.598 209.332 103.012 209.332 95.7207V88.8164C209.332 81.5247 210.289 74.9395 212.203 69.0605C214.163 63.1361 216.943 58.1003 220.543 53.9531C224.189 49.806 228.541 46.6159 233.6 44.3828C238.658 42.1497 244.309 41.0332 250.553 41.0332C258.847 41.0332 265.842 42.5371 271.539 45.5449C277.281 48.5527 281.725 52.6999 284.869 57.9863C288.059 63.2728 289.973 69.2884 290.611 76.0332H270.104C269.876 72.0228 269.078 68.6276 267.711 65.8477C266.344 63.0221 264.27 60.903 261.49 59.4902C258.756 58.0319 255.11 57.3027 250.553 57.3027C247.135 57.3027 244.15 57.9408 241.598 59.2168C239.046 60.4928 236.904 62.4297 235.172 65.0273C233.44 67.625 232.141 70.9062 231.275 74.8711C230.455 78.7904 230.045 83.3932 230.045 88.6797V95.7207C230.045 100.87 230.432 105.405 231.207 109.324C231.982 113.198 233.167 116.479 234.762 119.168C236.402 121.811 238.499 123.816 241.051 125.184C243.648 126.505 246.77 127.166 250.416 127.166C254.7 127.166 258.232 126.482 261.012 125.115C263.792 123.748 265.911 121.72 267.369 119.031C268.873 116.342 269.762 112.993 270.035 108.982ZM303.668 132.498C303.668 129.581 304.671 127.143 306.676 125.184C308.727 123.224 311.438 122.244 314.811 122.244C318.183 122.244 320.872 123.224 322.877 125.184C324.928 127.143 325.953 129.581 325.953 132.498C325.953 135.415 324.928 137.853 322.877 139.812C320.872 141.772 318.183 142.752 314.811 142.752C311.438 142.752 308.727 141.772 306.676 139.812C304.671 137.853 303.668 135.415 303.668 132.498ZM380.436 121.219L403.883 42.4688H426.715L392.057 142H377.018L380.436 121.219ZM358.834 42.4688L382.213 121.219L385.768 142H370.592L336.139 42.4688H358.834ZM492.75 108.982H513.189C512.779 115.682 510.934 121.629 507.652 126.824C504.417 132.02 499.882 136.076 494.049 138.992C488.261 141.909 481.288 143.367 473.131 143.367C466.751 143.367 461.031 142.273 455.973 140.086C450.914 137.853 446.585 134.663 442.984 130.516C439.43 126.368 436.718 121.355 434.85 115.477C432.981 109.598 432.047 103.012 432.047 95.7207V88.8164C432.047 81.5247 433.004 74.9395 434.918 69.0605C436.878 63.1361 439.658 58.1003 443.258 53.9531C446.904 49.806 451.256 46.6159 456.314 44.3828C461.373 42.1497 467.024 41.0332 473.268 41.0332C481.562 41.0332 488.557 42.5371 494.254 45.5449C499.996 48.5527 504.439 52.6999 507.584 57.9863C510.774 63.2728 512.688 69.2884 513.326 76.0332H492.818C492.59 72.0228 491.793 68.6276 490.426 65.8477C489.059 63.0221 486.985 60.903 484.205 59.4902C481.471 58.0319 477.825 57.3027 473.268 57.3027C469.85 57.3027 466.865 57.9408 464.312 59.2168C461.76 60.4928 459.618 62.4297 457.887 65.0273C456.155 67.625 454.856 70.9062 453.99 74.8711C453.17 78.7904 452.76 83.3932 452.76 88.6797V95.7207C452.76 100.87 453.147 105.405 453.922 109.324C454.697 113.198 455.882 116.479 457.477 119.168C459.117 121.811 461.214 123.816 463.766 125.184C466.363 126.505 469.485 127.166 473.131 127.166C477.415 127.166 480.947 126.482 483.727 125.115C486.507 123.748 488.626 121.72 490.084 119.031C491.588 116.342 492.477 112.993 492.75 108.982Z" fill="#7E57C2"/>
<path d="M61.2324 79.6895H71.7598C75.1322 79.6895 77.9121 79.1198 80.0996 77.9805C82.2871 76.7956 83.9049 75.1549 84.9531 73.0586C86.0469 70.9167 86.5938 68.4329 86.5938 65.6074C86.5938 63.0553 86.0924 60.7995 85.0898 58.8398C84.1328 56.8346 82.6517 55.2852 80.6465 54.1914C78.6413 53.0521 76.112 52.4824 73.0586 52.4824C70.6432 52.4824 68.4102 52.9609 66.3594 53.918C64.3086 54.875 62.668 56.2194 61.4375 57.9512C60.207 59.6829 59.5918 61.7793 59.5918 64.2402H39.8359C39.8359 58.7715 41.2943 54.0091 44.2109 49.9531C47.1732 45.8971 51.138 42.7298 56.1055 40.4512C61.0729 38.1725 66.5417 37.0332 72.5117 37.0332C79.2565 37.0332 85.1582 38.127 90.2168 40.3145C95.2754 42.4564 99.2174 45.6237 102.043 49.8164C104.868 54.0091 106.281 59.2044 106.281 65.4023C106.281 68.5469 105.552 71.6003 104.094 74.5625C102.635 77.4792 100.539 80.1224 97.8047 82.4922C95.1159 84.8164 91.8346 86.6849 87.9609 88.0977C84.0872 89.4648 79.735 90.1484 74.9043 90.1484H61.2324V79.6895ZM61.2324 94.6602V84.4746H74.9043C80.3275 84.4746 85.0898 85.0898 89.1914 86.3203C93.293 87.5508 96.7337 89.3281 99.5137 91.6523C102.294 93.931 104.39 96.6426 105.803 99.7871C107.215 102.886 107.922 106.327 107.922 110.109C107.922 114.758 107.033 118.905 105.256 122.551C103.479 126.151 100.972 129.204 97.7363 131.711C94.5462 134.217 90.8092 136.132 86.5254 137.453C82.2415 138.729 77.5703 139.367 72.5117 139.367C68.319 139.367 64.1947 138.798 60.1387 137.658C56.1283 136.473 52.4824 134.719 49.2012 132.395C45.9655 130.025 43.3678 127.062 41.4082 123.508C39.4941 119.908 38.5371 115.646 38.5371 110.725H58.293C58.293 113.277 58.931 115.555 60.207 117.561C61.4831 119.566 63.2376 121.138 65.4707 122.277C67.7493 123.417 70.2786 123.986 73.0586 123.986C76.2031 123.986 78.8919 123.417 81.125 122.277C83.4036 121.092 85.1354 119.452 86.3203 117.355C87.5508 115.214 88.166 112.73 88.166 109.904C88.166 106.258 87.5052 103.342 86.1836 101.154C84.862 98.9212 82.9707 97.2806 80.5098 96.2324C78.0488 95.1842 75.1322 94.6602 71.7598 94.6602H61.2324ZM163.977 55.4902L136.906 138H115.1L152.082 38.4688H165.959L163.977 55.4902ZM186.467 138L159.328 55.4902L157.141 38.4688H171.154L208.342 138H186.467ZM185.236 100.949V117.014H132.668V100.949H185.236ZM274.035 104.982H294.475C294.064 111.682 292.219 117.629 288.938 122.824C285.702 128.02 281.167 132.076 275.334 134.992C269.546 137.909 262.574 139.367 254.416 139.367C248.036 139.367 242.316 138.273 237.258 136.086C232.199 133.853 227.87 130.663 224.27 126.516C220.715 122.368 218.003 117.355 216.135 111.477C214.266 105.598 213.332 99.0124 213.332 91.7207V84.8164C213.332 77.5247 214.289 70.9395 216.203 65.0605C218.163 59.1361 220.943 54.1003 224.543 49.9531C228.189 45.806 232.541 42.6159 237.6 40.3828C242.658 38.1497 248.309 37.0332 254.553 37.0332C262.847 37.0332 269.842 38.5371 275.539 41.5449C281.281 44.5527 285.725 48.6999 288.869 53.9863C292.059 59.2728 293.973 65.2884 294.611 72.0332H274.104C273.876 68.0228 273.078 64.6276 271.711 61.8477C270.344 59.0221 268.27 56.903 265.49 55.4902C262.756 54.0319 259.11 53.3027 254.553 53.3027C251.135 53.3027 248.15 53.9408 245.598 55.2168C243.046 56.4928 240.904 58.4297 239.172 61.0273C237.44 63.625 236.141 66.9062 235.275 70.8711C234.455 74.7904 234.045 79.3932 234.045 84.6797V91.7207C234.045 96.8704 234.432 101.405 235.207 105.324C235.982 109.198 237.167 112.479 238.762 115.168C240.402 117.811 242.499 119.816 245.051 121.184C247.648 122.505 250.77 123.166 254.416 123.166C258.7 123.166 262.232 122.482 265.012 121.115C267.792 119.748 269.911 117.72 271.369 115.031C272.873 112.342 273.762 108.993 274.035 104.982ZM307.668 128.498C307.668 125.581 308.671 123.143 310.676 121.184C312.727 119.224 315.438 118.244 318.811 118.244C322.183 118.244 324.872 119.224 326.877 121.184C328.928 123.143 329.953 125.581 329.953 128.498C329.953 131.415 328.928 133.853 326.877 135.812C324.872 137.772 322.183 138.752 318.811 138.752C315.438 138.752 312.727 137.772 310.676 135.812C308.671 133.853 307.668 131.415 307.668 128.498ZM384.436 117.219L407.883 38.4688H430.715L396.057 138H381.018L384.436 117.219ZM362.834 38.4688L386.213 117.219L389.768 138H374.592L340.139 38.4688H362.834ZM496.75 104.982H517.189C516.779 111.682 514.934 117.629 511.652 122.824C508.417 128.02 503.882 132.076 498.049 134.992C492.261 137.909 485.288 139.367 477.131 139.367C470.751 139.367 465.031 138.273 459.973 136.086C454.914 133.853 450.585 130.663 446.984 126.516C443.43 122.368 440.718 117.355 438.85 111.477C436.981 105.598 436.047 99.0124 436.047 91.7207V84.8164C436.047 77.5247 437.004 70.9395 438.918 65.0605C440.878 59.1361 443.658 54.1003 447.258 49.9531C450.904 45.806 455.256 42.6159 460.314 40.3828C465.373 38.1497 471.024 37.0332 477.268 37.0332C485.562 37.0332 492.557 38.5371 498.254 41.5449C503.996 44.5527 508.439 48.6999 511.584 53.9863C514.774 59.2728 516.688 65.2884 517.326 72.0332H496.818C496.59 68.0228 495.793 64.6276 494.426 61.8477C493.059 59.0221 490.985 56.903 488.205 55.4902C485.471 54.0319 481.825 53.3027 477.268 53.3027C473.85 53.3027 470.865 53.9408 468.312 55.2168C465.76 56.4928 463.618 58.4297 461.887 61.0273C460.155 63.625 458.856 66.9062 457.99 70.8711C457.17 74.7904 456.76 79.3932 456.76 84.6797V91.7207C456.76 96.8704 457.147 101.405 457.922 105.324C458.697 109.198 459.882 112.479 461.477 115.168C463.117 117.811 465.214 119.816 467.766 121.184C470.363 122.505 473.485 123.166 477.131 123.166C481.415 123.166 484.947 122.482 487.727 121.115C490.507 119.748 492.626 117.72 494.084 115.031C495.588 112.342 496.477 108.993 496.75 104.982Z" fill="#F48FB1"/>
<path d="M65.2324 75.6895H75.7598C79.1322 75.6895 81.9121 75.1198 84.0996 73.9805C86.2871 72.7956 87.9049 71.1549 88.9531 69.0586C90.0469 66.9167 90.5938 64.4329 90.5938 61.6074C90.5938 59.0553 90.0924 56.7995 89.0898 54.8398C88.1328 52.8346 86.6517 51.2852 84.6465 50.1914C82.6413 49.0521 80.112 48.4824 77.0586 48.4824C74.6432 48.4824 72.4102 48.9609 70.3594 49.918C68.3086 50.875 66.668 52.2194 65.4375 53.9512C64.207 55.6829 63.5918 57.7793 63.5918 60.2402H43.8359C43.8359 54.7715 45.2943 50.0091 48.2109 45.9531C51.1732 41.8971 55.138 38.7298 60.1055 36.4512C65.0729 34.1725 70.5417 33.0332 76.5117 33.0332C83.2565 33.0332 89.1582 34.127 94.2168 36.3145C99.2754 38.4564 103.217 41.6237 106.043 45.8164C108.868 50.0091 110.281 55.2044 110.281 61.4023C110.281 64.5469 109.552 67.6003 108.094 70.5625C106.635 73.4792 104.539 76.1224 101.805 78.4922C99.1159 80.8164 95.8346 82.6849 91.9609 84.0977C88.0872 85.4648 83.735 86.1484 78.9043 86.1484H65.2324V75.6895ZM65.2324 90.6602V80.4746H78.9043C84.3275 80.4746 89.0898 81.0898 93.1914 82.3203C97.293 83.5508 100.734 85.3281 103.514 87.6523C106.294 89.931 108.39 92.6426 109.803 95.7871C111.215 98.8861 111.922 102.327 111.922 106.109C111.922 110.758 111.033 114.905 109.256 118.551C107.479 122.151 104.972 125.204 101.736 127.711C98.5462 130.217 94.8092 132.132 90.5254 133.453C86.2415 134.729 81.5703 135.367 76.5117 135.367C72.319 135.367 68.1947 134.798 64.1387 133.658C60.1283 132.473 56.4824 130.719 53.2012 128.395C49.9655 126.025 47.3678 123.062 45.4082 119.508C43.4941 115.908 42.5371 111.646 42.5371 106.725H62.293C62.293 109.277 62.931 111.555 64.207 113.561C65.4831 115.566 67.2376 117.138 69.4707 118.277C71.7493 119.417 74.2786 119.986 77.0586 119.986C80.2031 119.986 82.8919 119.417 85.125 118.277C87.4036 117.092 89.1354 115.452 90.3203 113.355C91.5508 111.214 92.166 108.73 92.166 105.904C92.166 102.258 91.5052 99.3418 90.1836 97.1543C88.862 94.9212 86.9707 93.2806 84.5098 92.2324C82.0488 91.1842 79.1322 90.6602 75.7598 90.6602H65.2324ZM167.977 51.4902L140.906 134H119.1L156.082 34.4688H169.959L167.977 51.4902ZM190.467 134L163.328 51.4902L161.141 34.4688H175.154L212.342 134H190.467ZM189.236 96.9492V113.014H136.668V96.9492H189.236ZM278.035 100.982H298.475C298.064 107.682 296.219 113.629 292.938 118.824C289.702 124.02 285.167 128.076 279.334 130.992C273.546 133.909 266.574 135.367 258.416 135.367C252.036 135.367 246.316 134.273 241.258 132.086C236.199 129.853 231.87 126.663 228.27 122.516C224.715 118.368 222.003 113.355 220.135 107.477C218.266 101.598 217.332 95.0124 217.332 87.7207V80.8164C217.332 73.5247 218.289 66.9395 220.203 61.0605C222.163 55.1361 224.943 50.1003 228.543 45.9531C232.189 41.806 236.541 38.6159 241.6 36.3828C246.658 34.1497 252.309 33.0332 258.553 33.0332C266.847 33.0332 273.842 34.5371 279.539 37.5449C285.281 40.5527 289.725 44.6999 292.869 49.9863C296.059 55.2728 297.973 61.2884 298.611 68.0332H278.104C277.876 64.0228 277.078 60.6276 275.711 57.8477C274.344 55.0221 272.27 52.903 269.49 51.4902C266.756 50.0319 263.11 49.3027 258.553 49.3027C255.135 49.3027 252.15 49.9408 249.598 51.2168C247.046 52.4928 244.904 54.4297 243.172 57.0273C241.44 59.625 240.141 62.9062 239.275 66.8711C238.455 70.7904 238.045 75.3932 238.045 80.6797V87.7207C238.045 92.8704 238.432 97.4049 239.207 101.324C239.982 105.198 241.167 108.479 242.762 111.168C244.402 113.811 246.499 115.816 249.051 117.184C251.648 118.505 254.77 119.166 258.416 119.166C262.7 119.166 266.232 118.482 269.012 117.115C271.792 115.748 273.911 113.72 275.369 111.031C276.873 108.342 277.762 104.993 278.035 100.982ZM311.668 124.498C311.668 121.581 312.671 119.143 314.676 117.184C316.727 115.224 319.438 114.244 322.811 114.244C326.183 114.244 328.872 115.224 330.877 117.184C332.928 119.143 333.953 121.581 333.953 124.498C333.953 127.415 332.928 129.853 330.877 131.812C328.872 133.772 326.183 134.752 322.811 134.752C319.438 134.752 316.727 133.772 314.676 131.812C312.671 129.853 311.668 127.415 311.668 124.498ZM388.436 113.219L411.883 34.4688H434.715L400.057 134H385.018L388.436 113.219ZM366.834 34.4688L390.213 113.219L393.768 134H378.592L344.139 34.4688H366.834ZM500.75 100.982H521.189C520.779 107.682 518.934 113.629 515.652 118.824C512.417 124.02 507.882 128.076 502.049 130.992C496.261 133.909 489.288 135.367 481.131 135.367C474.751 135.367 469.031 134.273 463.973 132.086C458.914 129.853 454.585 126.663 450.984 122.516C447.43 118.368 444.718 113.355 442.85 107.477C440.981 101.598 440.047 95.0124 440.047 87.7207V80.8164C440.047 73.5247 441.004 66.9395 442.918 61.0605C444.878 55.1361 447.658 50.1003 451.258 45.9531C454.904 41.806 459.256 38.6159 464.314 36.3828C469.373 34.1497 475.024 33.0332 481.268 33.0332C489.562 33.0332 496.557 34.5371 502.254 37.5449C507.996 40.5527 512.439 44.6999 515.584 49.9863C518.774 55.2728 520.688 61.2884 521.326 68.0332H500.818C500.59 64.0228 499.793 60.6276 498.426 57.8477C497.059 55.0221 494.985 52.903 492.205 51.4902C489.471 50.0319 485.825 49.3027 481.268 49.3027C477.85 49.3027 474.865 49.9408 472.312 51.2168C469.76 52.4928 467.618 54.4297 465.887 57.0273C464.155 59.625 462.856 62.9062 461.99 66.8711C461.17 70.7904 460.76 75.3932 460.76 80.6797V87.7207C460.76 92.8704 461.147 97.4049 461.922 101.324C462.697 105.198 463.882 108.479 465.477 111.168C467.117 113.811 469.214 115.816 471.766 117.184C474.363 118.505 477.485 119.166 481.131 119.166C485.415 119.166 488.947 118.482 491.727 117.115C494.507 115.748 496.626 113.72 498.084 111.031C499.588 108.342 500.477 104.993 500.75 100.982Z" fill="#EF3550"/>
<path d="M69.2324 71.6895H79.7598C83.1322 71.6895 85.9121 71.1198 88.0996 69.9805C90.2871 68.7956 91.9049 67.1549 92.9531 65.0586C94.0469 62.9167 94.5938 60.4329 94.5938 57.6074C94.5938 55.0553 94.0924 52.7995 93.0898 50.8398C92.1328 48.8346 90.6517 47.2852 88.6465 46.1914C86.6413 45.0521 84.112 44.4824 81.0586 44.4824C78.6432 44.4824 76.4102 44.9609 74.3594 45.918C72.3086 46.875 70.668 48.2194 69.4375 49.9512C68.207 51.6829 67.5918 53.7793 67.5918 56.2402H47.8359C47.8359 50.7715 49.2943 46.0091 52.2109 41.9531C55.1732 37.8971 59.138 34.7298 64.1055 32.4512C69.0729 30.1725 74.5417 29.0332 80.5117 29.0332C87.2565 29.0332 93.1582 30.127 98.2168 32.3145C103.275 34.4564 107.217 37.6237 110.043 41.8164C112.868 46.0091 114.281 51.2044 114.281 57.4023C114.281 60.5469 113.552 63.6003 112.094 66.5625C110.635 69.4792 108.539 72.1224 105.805 74.4922C103.116 76.8164 99.8346 78.6849 95.9609 80.0977C92.0872 81.4648 87.735 82.1484 82.9043 82.1484H69.2324V71.6895ZM69.2324 86.6602V76.4746H82.9043C88.3275 76.4746 93.0898 77.0898 97.1914 78.3203C101.293 79.5508 104.734 81.3281 107.514 83.6523C110.294 85.931 112.39 88.6426 113.803 91.7871C115.215 94.8861 115.922 98.3268 115.922 102.109C115.922 106.758 115.033 110.905 113.256 114.551C111.479 118.151 108.972 121.204 105.736 123.711C102.546 126.217 98.8092 128.132 94.5254 129.453C90.2415 130.729 85.5703 131.367 80.5117 131.367C76.319 131.367 72.1947 130.798 68.1387 129.658C64.1283 128.473 60.4824 126.719 57.2012 124.395C53.9655 122.025 51.3678 119.062 49.4082 115.508C47.4941 111.908 46.5371 107.646 46.5371 102.725H66.293C66.293 105.277 66.931 107.555 68.207 109.561C69.4831 111.566 71.2376 113.138 73.4707 114.277C75.7493 115.417 78.2786 115.986 81.0586 115.986C84.2031 115.986 86.8919 115.417 89.125 114.277C91.4036 113.092 93.1354 111.452 94.3203 109.355C95.5508 107.214 96.166 104.73 96.166 101.904C96.166 98.2585 95.5052 95.3418 94.1836 93.1543C92.862 90.9212 90.9707 89.2806 88.5098 88.2324C86.0488 87.1842 83.1322 86.6602 79.7598 86.6602H69.2324ZM171.977 47.4902L144.906 130H123.1L160.082 30.4688H173.959L171.977 47.4902ZM194.467 130L167.328 47.4902L165.141 30.4688H179.154L216.342 130H194.467ZM193.236 92.9492V109.014H140.668V92.9492H193.236ZM282.035 96.9824H302.475C302.064 103.682 300.219 109.629 296.938 114.824C293.702 120.02 289.167 124.076 283.334 126.992C277.546 129.909 270.574 131.367 262.416 131.367C256.036 131.367 250.316 130.273 245.258 128.086C240.199 125.853 235.87 122.663 232.27 118.516C228.715 114.368 226.003 109.355 224.135 103.477C222.266 97.5977 221.332 91.0124 221.332 83.7207V76.8164C221.332 69.5247 222.289 62.9395 224.203 57.0605C226.163 51.1361 228.943 46.1003 232.543 41.9531C236.189 37.806 240.541 34.6159 245.6 32.3828C250.658 30.1497 256.309 29.0332 262.553 29.0332C270.847 29.0332 277.842 30.5371 283.539 33.5449C289.281 36.5527 293.725 40.6999 296.869 45.9863C300.059 51.2728 301.973 57.2884 302.611 64.0332H282.104C281.876 60.0228 281.078 56.6276 279.711 53.8477C278.344 51.0221 276.27 48.903 273.49 47.4902C270.756 46.0319 267.11 45.3027 262.553 45.3027C259.135 45.3027 256.15 45.9408 253.598 47.2168C251.046 48.4928 248.904 50.4297 247.172 53.0273C245.44 55.625 244.141 58.9062 243.275 62.8711C242.455 66.7904 242.045 71.3932 242.045 76.6797V83.7207C242.045 88.8704 242.432 93.4049 243.207 97.3242C243.982 101.198 245.167 104.479 246.762 107.168C248.402 109.811 250.499 111.816 253.051 113.184C255.648 114.505 258.77 115.166 262.416 115.166C266.7 115.166 270.232 114.482 273.012 113.115C275.792 111.748 277.911 109.72 279.369 107.031C280.873 104.342 281.762 100.993 282.035 96.9824ZM315.668 120.498C315.668 117.581 316.671 115.143 318.676 113.184C320.727 111.224 323.438 110.244 326.811 110.244C330.183 110.244 332.872 111.224 334.877 113.184C336.928 115.143 337.953 117.581 337.953 120.498C337.953 123.415 336.928 125.853 334.877 127.812C332.872 129.772 330.183 130.752 326.811 130.752C323.438 130.752 320.727 129.772 318.676 127.812C316.671 125.853 315.668 123.415 315.668 120.498ZM392.436 109.219L415.883 30.4688H438.715L404.057 130H389.018L392.436 109.219ZM370.834 30.4688L394.213 109.219L397.768 130H382.592L348.139 30.4688H370.834ZM504.75 96.9824H525.189C524.779 103.682 522.934 109.629 519.652 114.824C516.417 120.02 511.882 124.076 506.049 126.992C500.261 129.909 493.288 131.367 485.131 131.367C478.751 131.367 473.031 130.273 467.973 128.086C462.914 125.853 458.585 122.663 454.984 118.516C451.43 114.368 448.718 109.355 446.85 103.477C444.981 97.5977 444.047 91.0124 444.047 83.7207V76.8164C444.047 69.5247 445.004 62.9395 446.918 57.0605C448.878 51.1361 451.658 46.1003 455.258 41.9531C458.904 37.806 463.256 34.6159 468.314 32.3828C473.373 30.1497 479.024 29.0332 485.268 29.0332C493.562 29.0332 500.557 30.5371 506.254 33.5449C511.996 36.5527 516.439 40.6999 519.584 45.9863C522.774 51.2728 524.688 57.2884 525.326 64.0332H504.818C504.59 60.0228 503.793 56.6276 502.426 53.8477C501.059 51.0221 498.985 48.903 496.205 47.4902C493.471 46.0319 489.825 45.3027 485.268 45.3027C481.85 45.3027 478.865 45.9408 476.312 47.2168C473.76 48.4928 471.618 50.4297 469.887 53.0273C468.155 55.625 466.856 58.9062 465.99 62.8711C465.17 66.7904 464.76 71.3932 464.76 76.6797V83.7207C464.76 88.8704 465.147 93.4049 465.922 97.3242C466.697 101.198 467.882 104.479 469.477 107.168C471.117 109.811 473.214 111.816 475.766 113.184C478.363 114.505 481.485 115.166 485.131 115.166C489.415 115.166 492.947 114.482 495.727 113.115C498.507 111.748 500.626 109.72 502.084 107.031C503.588 104.342 504.477 100.993 504.75 96.9824Z" fill="white"/>
</svg>
