<svg width="348" height="91" viewBox="0 0 348 91" fill="none" xmlns="http://www.w3.org/2000/svg">
<path d="M29.2293 69.1443C23.2543 69.1443 18.0738 68.2544 13.6878 66.4746C9.30185 64.6948 5.93294 62.1204 3.58105 58.7515C1.22917 55.3826 0.0532227 51.4098 0.0532227 46.8332H14.832C14.9591 50.0114 16.2304 52.5222 18.6458 54.3656C21.1248 56.1454 24.6527 57.0353 29.2293 57.0353C33.1067 57.0353 36.1578 56.3996 38.3826 55.1283C40.6709 53.7935 41.8151 51.8548 41.8151 49.3122C41.8151 47.4052 41.1159 45.8797 39.7175 44.7355C38.319 43.5914 36.571 42.7015 34.4734 42.0658C32.4393 41.4302 29.5789 40.7628 25.8922 40.0635C20.6799 39.1101 16.4211 38.0613 13.1157 36.9171C9.87393 35.7729 7.04531 33.8978 4.62986 31.2917C2.27798 28.6855 1.10204 25.0623 1.10204 20.4221C1.10204 13.9386 3.45392 8.94874 8.15769 5.4527C12.8615 1.89309 19.1861 0.113281 27.1317 0.113281C32.4711 0.113281 37.2067 0.9714 41.3383 2.68764C45.47 4.40388 48.68 6.88289 50.9684 10.1247C53.2567 13.3029 54.4962 17.085 54.6869 21.4709H40.1942C40.0671 18.6105 38.8593 16.354 36.571 14.7013C34.2827 13.0486 31.168 12.2223 27.227 12.2223C23.731 12.2223 20.9024 12.8897 18.7412 14.2246C16.58 15.4959 15.4994 17.3393 15.4994 19.7547C15.4994 21.6616 16.1986 23.219 17.597 24.4267C18.9954 25.5709 20.7435 26.4608 22.8411 27.0964C24.9387 27.732 27.8945 28.4313 31.7083 29.194C36.9206 30.1475 41.1794 31.1963 44.4848 32.3405C47.8537 33.4846 50.7141 35.3598 53.066 37.9659C55.4814 40.5721 56.6892 44.1635 56.6892 48.7401C56.6892 55.0965 54.2419 60.0864 49.3475 63.7095C44.453 67.3327 37.747 69.1443 29.2293 69.1443Z" fill="#1E1F1B"/>
<path d="M93.6181 67.8094C86.6896 68.5086 81.2548 68.4133 77.3138 67.5234C73.3728 66.6335 70.5442 64.7901 68.828 61.9933C67.1753 59.1965 66.349 55.1919 66.349 49.9796V25.2848L72.7372 31.5777H57.8631V19.9454C60.8506 19.9454 63.1072 19.564 64.6327 18.8012C66.2218 17.9749 67.3342 16.5765 67.9699 14.606C68.6055 12.6355 68.8916 9.80686 68.828 6.12012H82.5579C82.3037 8.72626 81.8269 10.8239 81.1277 12.413C80.4921 14.0021 79.475 15.4323 78.0766 16.7036C76.6782 17.9113 74.6441 19.2462 71.9744 20.7082L72.1651 17.1803L77.0278 26.0476L73.8814 24.522C77.2503 22.6151 80.1742 21.3438 82.6533 20.7082C85.1958 20.0725 88.7555 19.7865 93.3321 19.85V31.5777H74.1674L80.4603 25.2848V49.4075C80.4603 51.5052 80.8099 53.0943 81.5091 54.1749C82.2719 55.1919 83.5432 55.8275 85.323 56.0818C87.1663 56.2725 89.9314 56.1454 93.6181 55.7004V67.8094Z" fill="#1E1F1B"/>
<path d="M113.724 69.1443C110.164 69.1443 107.081 68.5722 104.475 67.4281C101.869 66.2839 99.8348 64.663 98.3728 62.5654C96.9744 60.4677 96.2752 58.0205 96.2752 55.2237C96.2752 51.1555 97.6418 47.8184 100.375 45.2123C103.172 42.6061 106.922 41.0488 111.626 40.5403L126.977 39.0147C128.757 38.824 130.187 38.3155 131.267 37.4892C132.348 36.5993 132.888 35.4869 132.888 34.1521C132.888 32.5629 132.094 31.3234 130.505 30.4335C128.916 29.5436 126.691 29.0987 123.83 29.0987C120.716 29.0987 118.205 29.6708 116.298 30.8149C114.391 31.8955 113.183 33.4846 112.675 35.5823H98.7542C99.7712 30.2428 102.441 26.1111 106.763 23.1872C111.149 20.1997 116.775 18.7059 123.64 18.7059C131.077 18.7059 136.798 20.4857 140.802 24.0453C144.87 27.6049 146.904 32.6265 146.904 39.1101V52.4586C146.904 53.6028 147.095 54.4927 147.476 55.1283C147.858 55.7004 148.493 56.0818 149.383 56.2725C150.337 56.4632 151.703 56.495 153.483 56.3678V68.0001C149.034 68.5087 145.569 68.318 143.09 67.4281C140.611 66.5382 139.086 65.0126 138.514 62.8514C138.005 60.6267 138.482 57.7345 139.944 54.1749L142.328 57.9887L132.126 54.5562L135.939 52.9354C134.414 58.0841 131.712 62.0886 127.835 64.949C124.021 67.7459 119.317 69.1443 113.724 69.1443ZM117.442 58.8469C121.765 58.8469 125.515 57.3531 128.693 54.3656C131.935 51.3145 134.255 47.0874 135.653 41.6844L138.323 46.6425L129.265 41.5891L132.507 40.4449C131.236 42.9875 129.837 44.7991 128.312 45.8797C126.786 46.8967 124.593 47.5959 121.733 47.9773L116.489 48.6448C114.455 48.899 112.866 49.5029 111.721 50.4563C110.641 51.4098 110.1 52.6175 110.1 54.0795C110.1 55.5415 110.736 56.7174 112.007 57.6073C113.342 58.4337 115.154 58.8469 117.442 58.8469Z" fill="#1E1F1B"/>
<path d="M181.765 69.2396C176.68 69.2396 172.103 68.159 168.035 65.9979C163.967 63.7731 160.757 60.722 158.405 56.8446C156.116 52.9671 154.972 48.6765 154.972 43.9728C154.972 39.1419 156.116 34.8195 158.405 31.0056C160.757 27.1282 163.967 24.1089 168.035 21.9477C172.103 19.7865 176.68 18.7059 181.765 18.7059C186.278 18.7059 190.409 19.564 194.16 21.2802C197.91 22.9329 201.025 25.3166 203.504 28.4313C206.046 31.4823 207.667 34.9784 208.366 38.9194H195.018C194.064 36.3132 192.444 34.2792 190.155 32.8172C187.93 31.3552 185.324 30.6242 182.337 30.6242C179.731 30.6242 177.411 31.1963 175.376 32.3405C173.342 33.4211 171.753 34.9784 170.609 37.0125C169.465 39.0465 168.893 41.3666 168.893 43.9728C168.893 46.5789 169.433 48.899 170.514 50.9331C171.658 52.9036 173.247 54.4609 175.281 55.6051C177.315 56.6857 179.667 57.226 182.337 57.226C185.515 57.226 188.248 56.4314 190.537 54.8423C192.888 53.1896 194.478 50.9649 195.304 48.168H208.557C207.921 52.2361 206.364 55.8593 203.885 59.0375C201.406 62.2158 198.26 64.7266 194.446 66.5699C190.632 68.3497 186.405 69.2396 181.765 69.2396Z" fill="#1E1F1B"/>
<path d="M247.684 68.0001C244.061 62.47 241.169 58.4337 239.008 55.8911C236.847 53.285 234.812 51.5369 232.906 50.647C231.062 49.7571 228.806 49.3122 226.136 49.3122H222.131V36.9171H226.136C228.742 36.9171 230.871 36.5357 232.524 35.7729C234.24 35.0102 236.084 33.4846 238.054 31.1963C240.088 28.8444 242.885 25.0623 246.445 19.85H263.035C258.903 26.3336 255.534 31.0056 252.928 33.866C250.386 36.7264 247.875 38.6651 245.396 39.6822C242.917 40.6356 239.58 41.1759 235.385 41.3031L238.436 36.6311V49.5029L235.385 45.1169C239.643 45.2441 243.108 45.8797 245.777 47.0239C248.511 48.168 251.244 50.2974 253.977 53.4121C256.71 56.5267 260.206 61.3894 264.465 68.0001H247.684ZM213.073 1.25744H227.185V68.0001H213.073V1.25744Z" fill="#1E1F1B"/>
<path d="M292.561 68.0001C286.268 68.5087 281.247 68.2226 277.496 67.142C273.746 66.0614 271.013 64.1227 269.297 61.3259C267.58 58.4655 266.722 54.5562 266.722 49.5982V1.25744H280.834V47.5006C280.834 49.916 281.088 51.6958 281.596 52.84C282.168 53.9842 283.281 54.7469 284.934 55.1283C286.586 55.4462 289.129 55.4462 292.561 55.1283V68.0001Z" fill="#1E1F1B"/>
<path d="M291.517 19.85H306.772C310.014 27.5414 312.334 33.3575 313.733 37.2985C315.131 41.2395 316.021 44.7038 316.402 47.6913C316.847 50.6152 317.133 54.3656 317.261 58.9422L314.019 56.9399H324.793L321.551 58.9422C321.678 54.3656 321.964 50.6152 322.409 47.6913C322.854 44.7038 323.744 41.2395 325.079 37.2985C326.477 33.3575 328.797 27.5414 332.039 19.85H347.295L326.128 70.0024H312.684L291.517 19.85ZM300.193 78.2022C303.499 78.5201 306.01 78.4883 307.726 78.1069C309.506 77.7891 310.713 77.0581 311.349 75.9139C311.985 74.7697 312.302 73.0535 312.302 70.7652V61.2305H326.414V72.5768C326.414 77.3441 325.524 81.0944 323.744 83.8277C322.028 86.561 319.263 88.4361 315.449 89.4531C311.635 90.5337 306.55 90.788 300.193 90.2159V78.2022Z" fill="#1E1F1B"/>
</svg>
