<svg width="140" height="51" viewBox="0 0 140 51" fill="none" xmlns="http://www.w3.org/2000/svg">
<path d="M23.8125 25.013L23.8125 13.1068C18.2642 13.1068 13.586 9.30438 12.2734 4.14699C11.868 2.55387 10.5736 1.2005 8.92969 1.2005L2.97657 1.2005C1.33265 1.2005 -0.019517 2.53983 0.183555 4.17115C1.646 15.9193 11.6687 25.013 23.8125 25.013Z" fill="#31322D"/>
<path d="M23.8125 25.013L23.8125 13.1068C29.3608 13.1068 34.039 9.30438 35.3516 4.14699C35.757 2.55387 37.0514 1.2005 38.6953 1.2005L44.6484 1.2005C46.2924 1.2005 47.6445 2.53983 47.4415 4.17115C45.979 15.9193 35.9563 25.013 23.8125 25.013Z" fill="#31322D"/>
<path d="M23.8125 48.8255L23.8125 36.9193C18.2642 36.9193 13.586 33.1169 12.2734 27.9595C11.868 26.3664 10.5736 25.013 8.92969 25.013L2.97657 25.013C1.33265 25.013 -0.0195176 26.3523 0.183554 27.9837C1.646 39.7318 11.6687 48.8255 23.8125 48.8255Z" fill="#31322D"/>
<path d="M23.8125 48.8255L23.8125 36.9193C29.3608 36.9193 34.039 33.1169 35.3516 27.9595C35.757 26.3664 37.0514 25.013 38.6953 25.013H44.6485C46.2924 25.013 47.6445 26.3523 47.4415 27.9837C45.979 39.7319 35.9563 48.8255 23.8125 48.8255Z" fill="#31322D"/>
<path fill-rule="evenodd" clip-rule="evenodd" d="M59.3227 28C59.951 28.2561 60.6035 28.4711 61.2801 28.6449C62.7732 29.0249 64.2799 29.215 65.8001 29.215C68.2162 29.215 70.3744 28.8349 72.2747 28.0748C72.3363 28.0502 72.3975 28.0252 72.4583 28L59.3227 28ZM77.8417 28.1609C76.5765 29.2958 75.0739 30.1862 73.3889 30.8602C72.4664 31.2292 71.5068 31.5194 70.513 31.7349C70.5626 31.8995 70.5873 32.0782 70.5873 32.271C70.5873 32.9633 70.3566 33.5062 69.8951 33.8998C69.4471 34.2799 68.8567 34.5514 68.1237 34.7143C67.4043 34.8771 66.6374 34.9586 65.823 34.9586C64.9271 34.9586 64.1331 34.8296 63.4408 34.5717C62.7485 34.3003 62.1852 33.9202 61.7509 33.4315C61.3165 32.9429 61.0247 32.3524 60.8754 31.6602H52.8126C52.9348 33.2483 53.3963 34.6328 54.1971 35.8137C54.998 36.9811 56.016 37.9516 57.2512 38.7253C58.5 39.499 59.8641 40.0759 61.3437 40.4559C62.8368 40.836 64.3434 41.026 65.8637 41.026C68.2798 41.026 70.438 40.6459 72.3383 39.8858C74.2386 39.1257 75.7385 38.0873 76.838 36.7707C77.951 35.4404 78.5076 33.9406 78.5076 32.271C78.5076 31.538 78.4329 30.6965 78.2836 29.7463C78.2009 29.2199 78.0536 28.6915 77.8417 28.1609ZM81.6297 29.9206C82.1946 30.3624 82.8179 30.7321 83.4754 31.0385L83.4939 31.0471L83.5126 31.0555C85.2052 31.8162 87.2921 32.1078 89.5603 32.1319L89.5703 34.4699C89.5703 34.7821 89.6246 35.0197 89.7332 35.1825C89.8554 35.3454 90.0115 35.4608 90.2015 35.5287C90.3915 35.583 90.6019 35.6101 90.8327 35.6101H94.1311V40.293C93.846 40.4288 93.3913 40.5713 92.7669 40.7206C92.1425 40.8699 91.1992 40.9446 89.9368 40.9446C87.7243 40.9446 86.014 40.6731 84.806 40.1301C83.6115 39.5736 82.7835 38.8339 82.322 37.9109C81.8605 36.9878 81.6297 35.963 81.6297 34.8364V29.9206ZM89.5475 29.1315C87.4922 29.1059 85.8905 28.8351 84.7424 28.3191C84.5269 28.2187 84.3233 28.1123 84.1316 28L89.5427 28L89.5475 29.1315ZM95.4562 31.0406C94.9231 31.9791 94.6566 33.0679 94.6566 34.307C94.6566 35.7594 94.9824 36.9878 95.6339 37.9923C96.299 38.9832 97.1813 39.7365 98.2808 40.2523C99.3938 40.7681 100.609 41.026 101.925 41.026C103.364 41.026 104.545 40.7613 105.468 40.232C106.391 39.689 107.165 38.7049 107.789 37.2797L108.481 40.6188H115.037V31.8078H107.463V33.4926C107.45 33.832 107.368 34.151 107.219 34.4496C107.083 34.7482 106.893 35.0197 106.649 35.264C106.405 35.4947 106.113 35.678 105.773 35.8137C105.448 35.9495 105.095 36.0173 104.715 36.0173C104.036 36.0173 103.425 35.7934 102.882 35.3454C102.353 34.8975 102.088 34.2799 102.088 33.4926C102.088 32.9743 102.229 32.5434 102.511 32.2001C102.295 32.2102 102.079 32.215 101.862 32.215C100.142 32.215 98.4926 31.8754 96.9558 31.1632L96.943 31.1573C96.7729 31.0774 96.4155 30.8617 96.1319 30.6905C96.0014 30.6117 95.8865 30.5424 95.8126 30.5L95.4562 31.0406ZM98.262 28.4619C99.3628 28.9639 100.563 29.215 101.862 29.215C103.24 29.215 104.382 28.972 105.287 28.4859C105.327 28.4647 105.366 28.4431 105.404 28.4209C105.607 28.3018 105.802 28.1615 105.99 28L99.3483 28C98.961 28.1381 98.5988 28.292 98.262 28.4619ZM108.25 28H114.974V28.8078H108.418L108.25 28ZM121.668 31.8078L115.206 40.6188H123.351L127.423 35.04L131.454 40.6188H139.598L133.137 31.8078H131.813L127.347 31.8273L123.206 31.8078H121.668ZM122.674 28.8078H123.287L123.877 28H122.086L122.674 28.8078ZM130.807 28H132.732L132.137 28.8078H131.39L130.807 28Z" fill="#31322D"/>
<path fill-rule="evenodd" clip-rule="evenodd" d="M60.5337 43.5506L60.54 43.5522C62.2717 43.993 64.0269 44.215 65.8001 44.215C68.5303 44.215 71.0765 43.7852 73.3889 42.8602C75.3309 42.0834 77.0306 41.0191 78.4039 39.6245C78.473 40.2236 78.5076 40.7724 78.5076 41.271C78.5076 42.9406 77.951 44.4404 76.838 45.7707C75.7385 47.0873 74.2386 48.1257 72.3383 48.8858C70.438 49.6459 68.2798 50.026 65.8637 50.026C64.3434 50.026 62.8368 49.836 61.3437 49.4559C59.8641 49.0759 58.5 48.499 57.2512 47.7253C56.016 46.9516 54.998 45.9811 54.1971 44.8137C53.3963 43.6328 52.9348 42.2483 52.8126 40.6602H54.4538C54.8179 40.9427 55.1985 41.2082 55.5951 41.4567L55.6013 41.4606L55.6076 41.4644C57.1248 42.4045 58.7717 43.0979 60.5337 43.5506ZM81.6297 41.9206V43.8364C81.6297 44.963 81.8605 45.9878 82.322 46.9109C82.7835 47.8339 83.6115 48.5736 84.806 49.1301C86.014 49.6731 87.7243 49.9446 89.9368 49.9446C91.1992 49.9446 92.1425 49.8699 92.7669 49.7206C93.3913 49.5713 93.846 49.4288 94.1311 49.293V44.6101H90.8327C90.6019 44.6101 90.3915 44.583 90.2015 44.5287C90.0115 44.4608 89.8554 44.3454 89.7332 44.1825C89.7227 44.1668 89.7127 44.1503 89.7031 44.1331C87.3798 44.1198 85.2406 43.8321 83.5126 43.0555L83.4939 43.0471L83.4754 43.0385C82.8179 42.7321 82.1946 42.3624 81.6297 41.9206ZM94.76 42.0287C94.6911 42.4354 94.6566 42.8615 94.6566 43.307C94.6566 44.7594 94.9824 45.9878 95.6339 46.9923C96.299 47.9832 97.1813 48.7365 98.2808 49.2523C99.3938 49.7681 100.609 50.026 101.925 50.026C103.364 50.026 104.545 49.7613 105.468 49.232C106.391 48.689 107.165 47.7049 107.789 46.2797L108.481 49.6188H115.037V43.8078H107.022C106.916 43.9691 106.792 44.1212 106.649 44.264C106.405 44.4947 106.113 44.678 105.773 44.8137C105.448 44.9495 105.095 45.0173 104.715 45.0173C104.036 45.0173 103.425 44.7934 102.882 44.3454C102.823 44.2954 102.767 44.2433 102.715 44.189C102.432 44.2066 102.147 44.215 101.862 44.215C100.142 44.215 98.4926 43.8754 96.9558 43.1632L96.943 43.1573C96.6946 43.0407 95.0472 42.1346 94.8126 42C94.7947 42.0085 94.7772 42.0181 94.76 42.0287ZM119.468 43.8078L115.206 49.6188H123.351L127.423 44.04L131.454 49.6188H139.598L135.337 43.8078H129.857L127.347 43.8273L124.811 43.8078H119.468ZM122.287 37.2769L122.973 37H122.086L122.287 37.2769ZM131.671 37H132.732L132.486 37.3344L131.671 37Z" fill="#31322D"/>
<path d="M66.1034 30.215C64.5832 30.215 63.0765 30.0249 61.5834 29.6449C60.1039 29.2648 58.7397 28.6879 57.491 27.9142C56.2558 27.1405 55.2377 26.17 54.4369 25.0027C53.636 23.8218 53.1745 22.4373 53.0524 20.8491H61.1151C61.2644 21.5414 61.5563 22.1319 61.9906 22.6205C62.425 23.1092 62.9883 23.4892 63.6805 23.7607C64.3728 24.0186 65.1669 24.1475 66.0627 24.1475C66.8771 24.1475 67.6441 24.0661 68.3635 23.9032C69.0964 23.7403 69.6869 23.4689 70.1348 23.0888C70.5963 22.6952 70.8271 22.1522 70.8271 21.46C70.8271 20.8627 70.5895 20.4012 70.1145 20.0754C69.653 19.7497 69.0489 19.4986 68.3024 19.3221C67.5694 19.1457 66.7957 18.9896 65.9813 18.8538L61.4816 18.0801C59.2284 17.7136 57.4095 16.8042 56.025 15.3518C54.6541 13.8859 53.9414 11.9041 53.8871 9.40655C53.86 7.42479 54.3894 5.73487 55.4753 4.33679C56.5747 2.92513 58.0407 1.85281 59.8731 1.11983C61.7192 0.373276 63.7552 0 65.9813 0C68.6689 0 70.9425 0.393637 72.802 1.18091C74.6616 1.96818 76.0733 3.06086 77.037 4.45895C78.0143 5.85704 78.5233 7.46552 78.5641 9.28439H70.7049C70.6235 8.52426 70.3927 7.91345 70.0127 7.45194C69.6326 6.97686 69.1168 6.63752 68.4653 6.43392C67.8273 6.21674 67.0536 6.10815 66.1442 6.10815C65.384 6.10815 64.7461 6.18281 64.2303 6.33212C63.7281 6.46785 63.3276 6.6511 63.029 6.88185C62.7304 7.09903 62.5132 7.34335 62.3775 7.61483C62.2553 7.8863 62.1942 8.15777 62.1942 8.42924C62.1942 9.09435 62.4046 9.63051 62.8254 10.0377C63.2462 10.4449 64.0878 10.7639 65.3501 10.9947L69.8701 11.7684C71.9741 12.1349 73.6233 12.7049 74.8177 13.4786C76.0122 14.2388 76.8877 15.1007 77.4442 16.0644C78.0143 17.0282 78.374 17.9851 78.5233 18.9353C78.6727 19.8854 78.7473 20.727 78.7473 21.46C78.7473 23.1295 78.1908 24.6294 77.0778 25.9596C75.9783 27.2763 74.4784 28.3147 72.5781 29.0748C70.6778 29.8349 68.5196 30.215 66.1034 30.215Z" fill="#31322D"/>
<path d="M94.3708 14.1302H89.7693L89.8101 23.6589C89.8101 23.9711 89.8644 24.2086 89.9729 24.3715C90.0951 24.5344 90.2512 24.6498 90.4412 24.7176C90.6313 24.7719 90.8417 24.7991 91.0724 24.7991H94.3708V29.482C94.0858 29.6177 93.631 29.7603 93.0067 29.9096C92.3823 30.0589 91.4389 30.1335 90.1765 30.1335C87.964 30.1335 86.2538 29.8621 85.0457 29.3191C83.8512 28.7626 83.0232 28.0228 82.5617 27.0998C82.1002 26.1768 81.8695 25.152 81.8695 24.0254V14.1302H78.4489V8.75501H82.1545L84.1906 2.19893H89.7693V8.71429H94.3708V14.1302Z" fill="#31322D"/>
<path d="M102.165 30.215C100.848 30.215 99.6336 29.9571 98.5205 29.4413C97.4211 28.9255 96.5388 28.1721 95.8737 27.1813C95.2221 26.1768 94.8964 24.9484 94.8964 23.496C94.8964 21.2156 95.799 19.4443 97.6043 18.1819C99.4232 16.9196 102.247 16.2884 106.074 16.2884H107.703V15.3925C107.703 14.7139 107.513 14.2184 107.133 13.9062C106.767 13.594 106.183 13.4515 105.382 13.4786C104.839 13.4922 104.242 13.6212 103.59 13.8655C102.939 14.1098 102.45 14.5917 102.124 15.3111H95.7108C95.7922 13.6551 96.2877 12.3181 97.1971 11.3001C98.1065 10.2685 99.3078 9.52193 100.801 9.06042C102.294 8.58534 103.943 8.3478 105.749 8.3478C108.192 8.3478 110.106 8.62606 111.49 9.18258C112.875 9.7391 113.852 10.5128 114.422 11.5037C114.992 12.481 115.277 13.6144 115.277 14.9039V29.8078H108.721L108.029 26.4686C107.404 27.8939 106.631 28.878 105.708 29.4209C104.785 29.9503 103.604 30.215 102.165 30.215ZM104.954 25.2063C105.335 25.2063 105.687 25.1384 106.013 25.0027C106.353 24.867 106.644 24.6837 106.889 24.453C107.133 24.2086 107.323 23.9372 107.459 23.6385C107.608 23.3399 107.69 23.0209 107.703 22.6816V20.0347H106.441C106.02 20.0347 105.484 20.1162 104.832 20.2791C104.181 20.4284 103.597 20.6931 103.081 21.0731C102.579 21.4532 102.328 21.9893 102.328 22.6816C102.328 23.4689 102.593 24.0865 103.122 24.5344C103.665 24.9823 104.276 25.2063 104.954 25.2063Z" fill="#31322D"/>
<path d="M139.838 29.8078H131.694L127.662 24.229L123.59 29.8078H115.446L123.509 18.8131L116.179 8.75501H124.323L127.703 13.3158L131.042 8.75501H139.186L131.775 18.8131L139.838 29.8078Z" fill="#31322D"/>
</svg>
